<?xml version="1.0" encoding="utf-8"?>
<!-- Generator: Adobe Illustrator 16.0.0, SVG Export Plug-In . SVG Version: 6.00 Build 0)  -->
<!DOCTYPE svg PUBLIC "-//W3C//DTD SVG 1.1//EN" "http://www.w3.org/Graphics/SVG/1.1/DTD/svg11.dtd">
<svg version="1.1" id="Layer_1" xmlns="http://www.w3.org/2000/svg" xmlns:xlink="http://www.w3.org/1999/xlink" x="0px" y="0px"
	 width="25px" height="25px" viewBox="0 0 25 25" enable-background="new 0 0 25 25" xml:space="preserve">
<path fill="#737373" d="M25,21.875C25,23.602,23.602,25,21.875,25H3.125C1.399,25,0,23.602,0,21.875V3.125C0,1.399,1.399,0,3.125,0
	h18.75C23.602,0,25,1.399,25,3.125V21.875z"/>
<path fill="#FFFFFF" d="M19.063,10.75H14.25V5.938c0-0.24-0.195-0.438-0.438-0.438h-2.625c-0.242,0-0.438,0.198-0.438,0.438v4.813
	H5.938c-0.241,0-0.438,0.196-0.438,0.438v2.625c0,0.24,0.196,0.438,0.438,0.438h4.813v4.813c0,0.24,0.196,0.438,0.438,0.438h2.625
	c0.242,0,0.438-0.197,0.438-0.438V14.25h4.813c0.241,0,0.438-0.197,0.438-0.438v-2.625C19.5,10.946,19.304,10.75,19.063,10.75z"/>
<g>
</g>
<g>
</g>
<g>
</g>
<g>
</g>
<g>
</g>
<g>
</g>
<g>
</g>
<g>
</g>
<g>
</g>
<g>
</g>
<g>
</g>
<g>
</g>
<g>
</g>
<g>
</g>
<g>
</g>
</svg>
