<?xml version="1.0" encoding="utf-8"?>
<!-- Generator: Adobe Illustrator 16.0.0, SVG Export Plug-In . SVG Version: 6.00 Build 0)  -->
<!DOCTYPE svg PUBLIC "-//W3C//DTD SVG 1.1//EN" "http://www.w3.org/Graphics/SVG/1.1/DTD/svg11.dtd">
<svg version="1.1" id="Layer_1" xmlns="http://www.w3.org/2000/svg" xmlns:xlink="http://www.w3.org/1999/xlink" x="0px" y="0px"
	 width="10px" height="10px" viewBox="0 0 10 10" enable-background="new 0 0 10 10" xml:space="preserve">
<path fill="#33ADFF" d="M5.986,4.999l3.949-3.806c0.085-0.083,0.085-0.223,0-0.309l-0.82-0.821c-0.086-0.084-0.223-0.084-0.309,0
	L4.998,4.01L1.199,0.063c-0.088-0.084-0.225-0.084-0.312,0L0.065,0.884c-0.086,0.086-0.086,0.225,0,0.309l3.944,3.806L0.065,8.808
	c-0.086,0.083-0.086,0.222,0,0.306l0.822,0.824c0.087,0.084,0.224,0.084,0.312,0l3.799-3.949l3.809,3.949
	c0.086,0.084,0.223,0.084,0.309,0l0.82-0.824c0.085-0.084,0.085-0.223,0-0.306L5.986,4.999z"/>
<g>
</g>
<g>
</g>
<g>
</g>
<g>
</g>
<g>
</g>
<g>
</g>
<g>
</g>
<g>
</g>
<g>
</g>
<g>
</g>
<g>
</g>
<g>
</g>
<g>
</g>
<g>
</g>
<g>
</g>
</svg>
