<?xml version="1.0" encoding="utf-8"?>
<!-- Generator: Adobe Illustrator 16.0.0, SVG Export Plug-In . SVG Version: 6.00 Build 0)  -->
<!DOCTYPE svg PUBLIC "-//W3C//DTD SVG 1.1//EN" "http://www.w3.org/Graphics/SVG/1.1/DTD/svg11.dtd">
<svg version="1.1" id="Layer_1" xmlns="http://www.w3.org/2000/svg" xmlns:xlink="http://www.w3.org/1999/xlink" x="0px" y="0px"
	 width="15px" height="15px" viewBox="0 0 15 15" enable-background="new 0 0 15 15" xml:space="preserve">
<path fill="#808080" d="M13.085,4.383l-6.666,6.666H3.95V8.58l6.667-6.665L13.085,4.383z M13.918,3.551L11.449,1.08l0.864-0.864
	c0.29-0.288,0.761-0.288,1.048,0l1.422,1.421c0.289,0.29,0.289,0.761,0,1.049L13.918,3.551z M11.851,7.896v5.129H1.976V3.149h5.43
	l1.975-1.975h-7.9C0.667,1.175,0,1.841,0,2.654v10.863C0,14.333,0.667,15,1.48,15h10.863c0.816,0,1.482-0.667,1.482-1.482V6.121
	L11.851,7.896z"/>
<g>
</g>
<g>
</g>
<g>
</g>
<g>
</g>
<g>
</g>
<g>
</g>
<g>
</g>
<g>
</g>
<g>
</g>
<g>
</g>
<g>
</g>
<g>
</g>
<g>
</g>
<g>
</g>
<g>
</g>
</svg>
