<?xml version="1.0" encoding="utf-8"?>
<!-- Generator: Adobe Illustrator 17.1.0, SVG Export Plug-In . SVG Version: 6.00 Build 0)  -->
<!DOCTYPE svg PUBLIC "-//W3C//DTD SVG 1.1//EN" "http://www.w3.org/Graphics/SVG/1.1/DTD/svg11.dtd">
<svg version="1.1" id="Layer_1" xmlns="http://www.w3.org/2000/svg" xmlns:xlink="http://www.w3.org/1999/xlink" x="0px" y="0px"
	 viewBox="66 66 25 25" enable-background="new 66 66 25 25" xml:space="preserve">
<g>
	<circle fill="#FAA21B" cx="78.5" cy="78.5" r="12.5"/>
	
		<linearGradient id="SVGID_1_" gradientUnits="userSpaceOnUse" x1="78.5" y1="100.5543" x2="78.5" y2="77.9919" gradientTransform="matrix(1 0 0 -1 0 157)">
		<stop  offset="0" style="stop-color:#FFFEF1"/>
		<stop  offset="0.305" style="stop-color:#FFFDEF"/>
		<stop  offset="0.4451" style="stop-color:#FFFAE9"/>
		<stop  offset="0.5515" style="stop-color:#FFF7DD"/>
		<stop  offset="0.6409" style="stop-color:#FFF2CF"/>
		<stop  offset="0.7196" style="stop-color:#FFEDBB"/>
		<stop  offset="0.7908" style="stop-color:#FFE7A4"/>
		<stop  offset="0.8564" style="stop-color:#FEE088"/>
		<stop  offset="0.9175" style="stop-color:#FDD866"/>
		<stop  offset="0.973" style="stop-color:#FCD036"/>
		<stop  offset="1" style="stop-color:#FCCC12"/>
	</linearGradient>
	<path fill="url(#SVGID_1_)" d="M78.5,79c4.3,0,8-2.4,9.9-5.9c-1.9-3.5-5.6-5.9-9.9-5.9s-8,2.4-9.9,5.9C70.5,76.6,74.2,79,78.5,79z"
		/>
	
		<linearGradient id="SVGID_2_" gradientUnits="userSpaceOnUse" x1="78.4841" y1="89.7805" x2="78.4841" y2="67.2181" gradientTransform="matrix(1 0 0 -1 0 157)">
		<stop  offset="0" style="stop-color:#F6B918"/>
		<stop  offset="1" style="stop-color:#FCCC12"/>
	</linearGradient>
	<path fill="url(#SVGID_2_)" d="M78.5,79c-4.3,0-8-2.4-9.9-5.9c-0.9,1.6-1.4,3.4-1.4,5.4c0,6.2,5,11.3,11.3,11.3s11.3-5,11.3-11.3
		c0-2-0.5-3.8-1.4-5.4C86.5,76.6,82.8,79,78.5,79z"/>
	<path fill="#010101" d="M78.5,81.2c-3.9,0-7.3,0-9.2-1.4c0.6,4.4,4.5,8.1,9.1,8.1c4.6,0,8.5-3.7,9.1-8.1
		C85.8,81.3,82.4,81.2,78.5,81.2z"/>
	<path fill="#FFFEF1" d="M78.5,81.7c-2.8,0-5.1,0-7-0.4c1,2.1,3.6,3.3,7,3.3s6-1.2,7-3.3C83.6,81.7,81.3,81.7,78.5,81.7z"/>
	<path fill="#DA3F26" d="M78.5,85c-2.2,0-4.1,0.7-4.6,1.6c1.4,0.8,2.9,1.3,4.6,1.3s3.2-0.5,4.6-1.3C82.6,85.7,80.7,85,78.5,85z"/>
	<g>
		<path fill="#010101" d="M73.6,75.2c-1.9-0.3-3,1.2-3,1.3c0,0-0.3,0.5,0.1,0.8c0.6,0.5,0.9,0,0.9,0c0,0,0.5-1,1.8-0.7
			s1.5,1.3,1.5,1.3c0,0,0.2,0.5,0.9,0.3c0.5-0.2,0.3-0.7,0.3-0.7C76,77.3,75.5,75.5,73.6,75.2L73.6,75.2z"/>
		<path fill="#010101" d="M83.4,75.2c1.9-0.3,3,1.2,3,1.3c0,0,0.3,0.5-0.1,0.8c-0.6,0.5-0.9,0-0.9,0c0,0-0.5-1-1.8-0.7
			c-1.3,0.2-1.5,1.3-1.5,1.3c0,0-0.2,0.5-0.9,0.3c-0.5-0.2-0.3-0.7-0.3-0.7C81,77.3,81.5,75.5,83.4,75.2L83.4,75.2z"/>
	</g>
</g>
</svg>
