<?xml version="1.0" encoding="utf-8"?>
<!-- Generator: Adobe Illustrator 17.1.0, SVG Export Plug-In . SVG Version: 6.00 Build 0)  -->
<!DOCTYPE svg PUBLIC "-//W3C//DTD SVG 1.1//EN" "http://www.w3.org/Graphics/SVG/1.1/DTD/svg11.dtd">
<svg version="1.1" id="Layer_1" xmlns="http://www.w3.org/2000/svg" xmlns:xlink="http://www.w3.org/1999/xlink" x="0px" y="0px"
	 viewBox="66 66 25 25" enable-background="new 66 66 25 25" xml:space="preserve">
<g>
	<g>
		<circle fill="#FAA21B" cx="78.5" cy="78.5" r="12.5"/>
		
			<linearGradient id="SVGID_1_" gradientUnits="userSpaceOnUse" x1="78.4841" y1="89.7803" x2="78.4841" y2="67.2184" gradientTransform="matrix(1 0 0 -1 0 157)">
			<stop  offset="0" style="stop-color:#F6B918"/>
			<stop  offset="1" style="stop-color:#FCCC12"/>
		</linearGradient>
		<path fill="url(#SVGID_1_)" d="M78.5,79c-4.3,0-8-2.4-9.9-5.9c-0.9,1.6-1.4,3.4-1.4,5.4c0,6.2,5,11.3,11.3,11.3s11.3-5,11.3-11.3
			c0-2-0.5-3.8-1.4-5.4C86.5,76.6,82.8,79,78.5,79z"/>
		
			<linearGradient id="SVGID_2_" gradientUnits="userSpaceOnUse" x1="78.5" y1="100.5545" x2="78.5" y2="77.9925" gradientTransform="matrix(1 0 0 -1 0 157)">
			<stop  offset="0" style="stop-color:#FFFEF1"/>
			<stop  offset="0.305" style="stop-color:#FFFDEF"/>
			<stop  offset="0.4451" style="stop-color:#FFFAE9"/>
			<stop  offset="0.5515" style="stop-color:#FFF7DD"/>
			<stop  offset="0.6409" style="stop-color:#FFF2CF"/>
			<stop  offset="0.7196" style="stop-color:#FFEDBB"/>
			<stop  offset="0.7908" style="stop-color:#FFE7A4"/>
			<stop  offset="0.8564" style="stop-color:#FEE088"/>
			<stop  offset="0.9175" style="stop-color:#FDD866"/>
			<stop  offset="0.973" style="stop-color:#FCD036"/>
			<stop  offset="1" style="stop-color:#FCCC12"/>
		</linearGradient>
		<path fill="url(#SVGID_2_)" d="M78.5,79c4.3,0,8-2.4,9.9-5.9c-1.9-3.5-5.6-5.9-9.9-5.9s-8,2.4-9.9,5.9C70.5,76.6,74.2,79,78.5,79z
			"/>
	</g>
	<g>
		<path fill="#F6B918" d="M74.4,81.5c0,1.8-1.4,3.2-3.2,3.2s-3.2-1.4-3.2-3.2s1.4-3.2,3.2-3.2C72.9,78.2,74.4,79.7,74.4,81.5z"/>
		<path fill="#F6B134" d="M74.2,81.5c0,1.7-1.4,3-3,3s-3-1.4-3-3s1.4-3,3-3S74.2,79.8,74.2,81.5z"/>
		<path fill="#F5AA49" d="M73.9,81.5c0,1.5-1.3,2.8-2.8,2.8s-2.8-1.3-2.8-2.8s1.3-2.8,2.8-2.8C72.7,78.7,73.9,79.9,73.9,81.5z"/>
		<circle fill="#F4A45C" cx="71.1" cy="81.5" r="2.6"/>
		<circle fill="#F49D6A" cx="71.1" cy="81.5" r="2.3"/>
		<circle fill="#F39675" cx="71.1" cy="81.5" r="2.1"/>
		<circle fill="#F38F80" cx="71.1" cy="81.5" r="1.9"/>
		<circle fill="#F2888A" cx="71.1" cy="81.5" r="1.7"/>
		<circle fill="#F28193" cx="71.1" cy="81.5" r="1.4"/>
		<circle fill="#F2799B" cx="71.1" cy="81.5" r="1.2"/>
	</g>
	<g>
		<path fill="#F6B918" d="M89.1,81.5c0,1.8-1.4,3.2-3.2,3.2s-3.2-1.4-3.2-3.2s1.4-3.2,3.2-3.2C87.7,78.2,89.1,79.7,89.1,81.5z"/>
		<path fill="#F6B134" d="M88.9,81.5c0,1.7-1.4,3-3,3s-3-1.4-3-3s1.4-3,3-3S88.9,79.8,88.9,81.5z"/>
		<path fill="#F5AA49" d="M88.7,81.5c0,1.5-1.3,2.8-2.8,2.8s-2.8-1.3-2.8-2.8s1.3-2.8,2.8-2.8C87.4,78.7,88.7,79.9,88.7,81.5z"/>
		<circle fill="#F4A45C" cx="85.9" cy="81.5" r="2.6"/>
		<circle fill="#F49D6A" cx="85.9" cy="81.5" r="2.3"/>
		<circle fill="#F39675" cx="85.9" cy="81.5" r="2.1"/>
		<circle fill="#F38F80" cx="85.9" cy="81.5" r="1.9"/>
		<circle fill="#F2888A" cx="85.9" cy="81.5" r="1.7"/>
		<circle fill="#F28193" cx="85.9" cy="81.5" r="1.4"/>
		<circle fill="#F2799B" cx="85.9" cy="81.5" r="1.2"/>
	</g>
	<path fill="#010101" d="M82,84.8c-2.1,1.1-3.8,1.6-5.3,1.6c0.8,0.6,2.8,1,4.8,0.3s3.1-2.5,2.9-4C83.9,83.4,83.3,84.1,82,84.8z"/>
	<g>
		<path fill="#010101" d="M73.5,75.2c-1.9-0.3-3,1.2-3,1.3c0,0-0.3,0.5,0.1,0.8c0.6,0.5,0.9,0,0.9,0c0,0,0.5-1,1.8-0.7
			c1.3,0.2,1.5,1.3,1.5,1.3c0,0,0.2,0.5,0.9,0.3c0.5-0.2,0.3-0.7,0.3-0.7C76,77.3,75.5,75.5,73.5,75.2L73.5,75.2z"/>
		<path fill="#010101" d="M83.4,75.2c1.9-0.3,3,1.2,3,1.3c0,0,0.3,0.5-0.1,0.8c-0.6,0.5-0.9,0-0.9,0c0,0-0.5-1-1.8-0.7
			s-1.5,1.3-1.5,1.3c0,0-0.2,0.5-0.9,0.3c-0.5-0.2-0.3-0.7-0.3-0.7C80.9,77.3,81.4,75.5,83.4,75.2L83.4,75.2z"/>
	</g>
</g>
</svg>
