<?xml version="1.0" encoding="utf-8"?>
<!-- Generator: Adobe Illustrator 17.1.0, SVG Export Plug-In . SVG Version: 6.00 Build 0)  -->
<!DOCTYPE svg PUBLIC "-//W3C//DTD SVG 1.1//EN" "http://www.w3.org/Graphics/SVG/1.1/DTD/svg11.dtd">
<svg version="1.1" id="Layer_1" xmlns="http://www.w3.org/2000/svg" xmlns:xlink="http://www.w3.org/1999/xlink" x="0px" y="0px"
	 viewBox="66 66 25 25" enable-background="new 66 66 25 25" xml:space="preserve">
<g>
	<g>
		<circle fill="#FAA21B" cx="78.5" cy="78.5" r="12.5"/>
		
			<linearGradient id="SVGID_1_" gradientUnits="userSpaceOnUse" x1="78.5" y1="100.5545" x2="78.5" y2="77.9917" gradientTransform="matrix(1 0 0 -1 0 157)">
			<stop  offset="0" style="stop-color:#FFFEF1"/>
			<stop  offset="0.305" style="stop-color:#FFFDEF"/>
			<stop  offset="0.4451" style="stop-color:#FFFAE9"/>
			<stop  offset="0.5515" style="stop-color:#FFF7DD"/>
			<stop  offset="0.6409" style="stop-color:#FFF2CF"/>
			<stop  offset="0.7196" style="stop-color:#FFEDBB"/>
			<stop  offset="0.7908" style="stop-color:#FFE7A4"/>
			<stop  offset="0.8564" style="stop-color:#FEE088"/>
			<stop  offset="0.9175" style="stop-color:#FDD866"/>
			<stop  offset="0.973" style="stop-color:#FCD036"/>
			<stop  offset="1" style="stop-color:#FCCC12"/>
		</linearGradient>
		<path fill="url(#SVGID_1_)" d="M78.5,79c4.3,0,8-2.4,9.9-5.9c-1.9-3.5-5.6-5.9-9.9-5.9s-8,2.4-9.9,5.9C70.5,76.6,74.2,79,78.5,79z
			"/>
		
			<linearGradient id="SVGID_2_" gradientUnits="userSpaceOnUse" x1="78.5" y1="89.7804" x2="78.5" y2="67.2184" gradientTransform="matrix(1 0 0 -1 0 157)">
			<stop  offset="0" style="stop-color:#F6B918"/>
			<stop  offset="1" style="stop-color:#FCCC12"/>
		</linearGradient>
		<path fill="url(#SVGID_2_)" d="M78.5,79c-4.3,0-8-2.4-9.9-5.9c-0.9,1.6-1.4,3.4-1.4,5.4c0,6.2,5,11.3,11.3,11.3s11.3-5,11.3-11.3
			c0-2-0.5-3.8-1.4-5.4C86.5,76.6,82.8,79,78.5,79z"/>
	</g>
	<g>
		<path fill="#010101" d="M76.1,76.1c-0.3,1.4-1.1,2.5-1.7,2.4c-0.6-0.1-0.9-1.4-0.5-2.9c0.3-1.4,1.1-2.5,1.7-2.4
			C76.1,73.4,76.4,74.7,76.1,76.1z"/>
		<path fill="#010101" d="M80.9,76.1c0.3,1.4,1.1,2.5,1.7,2.4c0.6-0.1,0.9-1.4,0.5-2.9c-0.3-1.4-1.1-2.5-1.7-2.4
			C80.9,73.4,80.6,74.7,80.9,76.1z"/>
	</g>
	<path fill="#010101" d="M85.2,86.5c-1.3-1.9-3.8-3.7-6.7-3.7s-5.3,1.7-6.7,3.7c1.5-1.6,3.9-2.3,6.7-2.3S83.7,84.9,85.2,86.5z"/>
</g>
</svg>
