<?xml version="1.0" encoding="utf-8"?>
<!-- Generator: Adobe Illustrator 17.1.0, SVG Export Plug-In . SVG Version: 6.00 Build 0)  -->
<!DOCTYPE svg PUBLIC "-//W3C//DTD SVG 1.1//EN" "http://www.w3.org/Graphics/SVG/1.1/DTD/svg11.dtd">
<svg version="1.1" id="Layer_1" xmlns="http://www.w3.org/2000/svg" xmlns:xlink="http://www.w3.org/1999/xlink" x="0px" y="0px"
	 viewBox="66 66 25 25" enable-background="new 66 66 25 25" xml:space="preserve">
<g>
	
		<linearGradient id="SVGID_1_" gradientUnits="userSpaceOnUse" x1="78.5" y1="89.7888" x2="78.5" y2="67.2407" gradientTransform="matrix(1 0 0 -1 0 157)">
		<stop  offset="0" style="stop-color:#F6B918"/>
		<stop  offset="1" style="stop-color:#FCCC12"/>
	</linearGradient>
	<path fill="url(#SVGID_1_)" d="M78.5,79c4.2,0,7.9-2.4,9.8-5.9c-1.9-3.5-5.6-5.9-9.8-5.9s-7.9,2.4-9.8,5.9
		C70.6,76.6,74.3,79,78.5,79z"/>
	<path fill="#FAA21B" d="M90.8,78.5c0,6.9-5.5,12.5-12.3,12.5c-6.8,0-12.3-5.6-12.3-12.5c0-6.9,5.5-12.5,12.3-12.5
		C85.3,66,90.8,71.6,90.8,78.5z"/>
	
		<linearGradient id="SVGID_2_" gradientUnits="userSpaceOnUse" x1="78.4682" y1="89.7813" x2="78.4682" y2="67.2332" gradientTransform="matrix(1 0 0 -1 0 157)">
		<stop  offset="0" style="stop-color:#F6B918"/>
		<stop  offset="1" style="stop-color:#FCCC12"/>
	</linearGradient>
	<path fill="url(#SVGID_2_)" d="M78.5,79c-4.2,0-7.9-2.4-9.8-5.9c-0.9,1.6-1.4,3.4-1.4,5.4c0,6.2,5,11.3,11.1,11.3
		c6.1,0,11.1-5.1,11.1-11.3c0-2-0.5-3.8-1.4-5.4C86.4,76.6,82.7,79,78.5,79z"/>
	<path fill="#010101" d="M78.5,81.2c-3.8,0-7.2,0-9-1.4c0.6,4.4,3.6,8.9,9,8.9c5.2,0,8.3-4.4,9-8.8C85.7,81.2,82.3,81.2,78.5,81.2z"
		/>
	
		<linearGradient id="SVGID_3_" gradientUnits="userSpaceOnUse" x1="78.4761" y1="100.5482" x2="78.4761" y2="78.0002" gradientTransform="matrix(1 0 0 -1 0 157)">
		<stop  offset="0" style="stop-color:#FFFEF1"/>
		<stop  offset="0.305" style="stop-color:#FFFDEF"/>
		<stop  offset="0.4451" style="stop-color:#FFFAE9"/>
		<stop  offset="0.5515" style="stop-color:#FFF7DD"/>
		<stop  offset="0.6409" style="stop-color:#FFF2CF"/>
		<stop  offset="0.7196" style="stop-color:#FFEDBB"/>
		<stop  offset="0.7908" style="stop-color:#FFE7A4"/>
		<stop  offset="0.8564" style="stop-color:#FEE088"/>
		<stop  offset="0.9175" style="stop-color:#FDD866"/>
		<stop  offset="0.973" style="stop-color:#FCD036"/>
		<stop  offset="1" style="stop-color:#FCCC12"/>
	</linearGradient>
	<path fill="url(#SVGID_3_)" d="M78.5,79c4.2,0,7.9-2.4,9.8-5.9c-1.9-3.5-5.6-5.9-9.8-5.9c-4.2,0-7.9,2.4-9.8,5.9
		C70.6,76.6,74.2,79,78.5,79z"/>
	<path fill="#FFFEF1" d="M78.5,81.8c-2.7,0-5.8-0.2-7.7-0.6c0.4,2.8,4.5,3.7,7.8,3.7s6.7-1,7.4-3.7C84.2,81.6,81.2,81.8,78.5,81.8z"
		/>
	<path fill="#FFFEF1" d="M78.6,85.7c-2.5,0-3.6-0.2-5.3-1c0.9,1.8,2.2,3.2,5.2,3.2s4.5-1.5,5.4-3.3C82.2,85.4,81,85.7,78.6,85.7z"/>
	<g>
		<path fill="#010101" d="M91,75.6l-0.5-1.7c0,0-1.4-0.9-4.4-1.1c-2.8-0.2-6.9,1.2-7.7,1.4c-0.7-0.2-4.9-1.6-7.7-1.4
			c-3,0.2-4.4,1.1-4.4,1.1L66,75.6c0,0,0.7-0.2,1.6-0.5c0,1.1,0.1,4,1.9,4.5c2.2,0.6,5.4,0.5,6.6-0.4c1.4-0.9,1.6-3,1.7-3.8
			c0.4,0.1,0.6,0.1,0.7,0.1c0,0,0.3,0,0.6-0.1c0,0.8,0.3,2.9,1.7,3.8c1.2,0.8,4.4,1,6.6,0.4c1.8-0.5,1.9-3.5,1.9-4.6
			C90.2,75.4,91,75.6,91,75.6z"/>
		
			<linearGradient id="SVGID_4_" gradientUnits="userSpaceOnUse" x1="72.0892" y1="83.3984" x2="73.0517" y2="79.538" gradientTransform="matrix(1 0 0 -1 0 157)">
			<stop  offset="0" style="stop-color:#FFFEF1"/>
			<stop  offset="0.1149" style="stop-color:#F3F1E6"/>
			<stop  offset="0.2463" style="stop-color:#DCD9D1"/>
			<stop  offset="0.3858" style="stop-color:#BCB8B2"/>
			<stop  offset="0.5309" style="stop-color:#94908C"/>
			<stop  offset="0.6805" style="stop-color:#686462"/>
			<stop  offset="0.8338" style="stop-color:#3C3A39"/>
			<stop  offset="0.9874" style="stop-color:#080807"/>
			<stop  offset="1" style="stop-color:#010101"/>
		</linearGradient>
		<path fill="url(#SVGID_4_)" d="M68.1,74.7c0,0,0.1,1.6,0.4,2.3c0.3,0.6,0.5,1.6,2.3,1c0.7-0.2,5-1.1,5.4-1.5s0.6-1.4,0.6-1.4
			s-4.4-0.9-5.8-1C69.7,74,68.1,74.7,68.1,74.7z"/>
		
			<linearGradient id="SVGID_5_" gradientUnits="userSpaceOnUse" x1="83.9052" y1="82.9297" x2="84.6591" y2="79.9059" gradientTransform="matrix(1 0 0 -1 0 157)">
			<stop  offset="0" style="stop-color:#FFFEF1"/>
			<stop  offset="0.1149" style="stop-color:#F3F1E6"/>
			<stop  offset="0.2463" style="stop-color:#DCD9D1"/>
			<stop  offset="0.3858" style="stop-color:#BCB8B2"/>
			<stop  offset="0.5309" style="stop-color:#94908C"/>
			<stop  offset="0.6805" style="stop-color:#686462"/>
			<stop  offset="0.8338" style="stop-color:#3C3A39"/>
			<stop  offset="0.9874" style="stop-color:#080807"/>
			<stop  offset="1" style="stop-color:#010101"/>
		</linearGradient>
		<path fill="url(#SVGID_5_)" d="M79.6,75.1c0,0,0.4,1.6,0.7,2c0.3,0.4,0.7,0.7,1.1,0.7c0.4,0,5.6-1.6,6.1-1.7c0.5-0.1,0.9-0.6,1-1
			s0.1-0.6,0.1-0.6s-1.9-0.8-2.9-0.7C84.7,74,79.6,75.1,79.6,75.1z"/>
	</g>
	<path fill="#010101" d="M79.3,69.8l0.2,1.7c0,0,2-0.4,3.3-0.2c1.7,0.2,2.1,0.4,3.5,0.9c0,0-0.9-2.5-4.1-2.7
		C80.4,69.5,79.3,69.8,79.3,69.8z"/>
	<path fill="#010101" d="M76.4,71.6l-0.6,1.3c0,0-1-0.7-2.7-0.8c-1.1-0.1-3.2,0.1-3.2,0.1s1.3-1.5,3.4-1.4S76.4,71.6,76.4,71.6z"/>
</g>
</svg>
