<?xml version="1.0" encoding="utf-8"?>
<!-- Generator: Adobe Illustrator 16.0.0, SVG Export Plug-In . SVG Version: 6.00 Build 0)  -->
<!DOCTYPE svg PUBLIC "-//W3C//DTD SVG 1.1//EN" "http://www.w3.org/Graphics/SVG/1.1/DTD/svg11.dtd">
<svg version="1.1" id="Layer_1" xmlns="http://www.w3.org/2000/svg" xmlns:xlink="http://www.w3.org/1999/xlink" x="0px" y="0px"
	 width="12.805px" height="9.799px" viewBox="0 0 12.805 9.799" enable-background="new 0 0 12.805 9.799" xml:space="preserve">
<g id="eye_x5F_closed">
	<path fill="#868686" d="M10.267,0L8.963,1.407c-0.816-0.225-1.66-0.34-2.527-0.34c-1.528,0-3.021,0.351-4.373,1.042
		C1.332,2.482,0,2.953,0,3.503v1.111c0-0.729,1.535-1.341,2.424-1.796C3.664,2.184,5,1.863,6.401,1.863
		c0.649,0,1.302,0.077,1.921,0.215l-0.95,1.035C7.062,3.077,6.751,3.057,6.431,3.057c-2.604,0-4.915,1.25-6.367,3.185
		C0.718,7.111,1.546,7.84,2.496,8.381L1.833,9.096l0.759,0.703l8.434-9.096L10.267,0z M5.639,4.65c0.096,0,0.187,0.018,0.271,0.049
		L4.915,5.771C4.87,5.674,4.843,5.563,4.843,5.447C4.843,5.006,5.199,4.65,5.639,4.65z M1.096,6.242
		c0.59-0.658,1.301-1.207,2.085-1.608c0.402-0.205,0.824-0.373,1.259-0.499C4.19,4.512,4.047,4.962,4.047,5.447
		c0,0.361,0.088,0.703,0.232,1.012l-1.225,1.32C2.322,7.385,1.652,6.865,1.096,6.242z"/>
	<path fill="#868686" d="M8.824,5.447c0-0.344-0.076-0.666-0.205-0.96L5.648,7.691c0.248,0.086,0.51,0.143,0.787,0.143
		C7.755,7.834,8.824,6.766,8.824,5.447z"/>
	<path fill="#868686" d="M10.19,2.736c0.057,0.027-0.261,0.052-0.206,0.081C10.873,3.272,12,3.884,12,4.613v-1.11
		c0-0.542-0.877-1.006-1.594-1.376L10.19,2.736z"/>
	<path fill="#868686" d="M9.41,3.635L8.821,4.269C9.118,4.374,9.41,4.491,9.689,4.634c0.784,0.399,1.497,0.95,2.086,1.608
		C11.185,6.9,10.474,7.451,9.689,7.852c-0.494,0.25-1.016,0.445-1.553,0.576C7.583,8.563,7.011,8.631,6.436,8.631
		c-0.508,0-1.011-0.063-1.503-0.168L4.309,9.137c0.678,0.188,1.39,0.289,2.127,0.289c2.604,0,4.916-1.248,6.369-3.184
		C11.938,5.089,10.766,4.182,9.41,3.635z"/>
</g>
<g>
</g>
<g>
</g>
<g>
</g>
<g>
</g>
<g>
</g>
<g>
</g>
<g>
</g>
<g>
</g>
<g>
</g>
<g>
</g>
<g>
</g>
<g>
</g>
<g>
</g>
<g>
</g>
<g>
</g>
</svg>
