<?xml version="1.0" encoding="utf-8"?>
<!-- Generator: Adobe Illustrator 16.0.0, SVG Export Plug-In . SVG Version: 6.00 Build 0)  -->
<!DOCTYPE svg PUBLIC "-//W3C//DTD SVG 1.1//EN" "http://www.w3.org/Graphics/SVG/1.1/DTD/svg11.dtd">
<svg version="1.1" id="Layer_1" xmlns="http://www.w3.org/2000/svg" xmlns:xlink="http://www.w3.org/1999/xlink" x="0px" y="0px"
	 width="12.324px" height="8.088px" viewBox="0 0 12.324 8.088" enable-background="new 0 0 12.324 8.088" xml:space="preserve">
<path id="eye_x5F_open" fill="#868686" d="M6.162,1.925c-2.52,0-4.757,1.21-6.162,3.081c1.405,1.873,3.643,3.082,6.162,3.082
	s4.756-1.209,6.162-3.082C10.918,3.135,8.682,1.925,6.162,1.925z M5.392,3.466c0.426,0,0.771,0.345,0.771,0.771
	c0,0.425-0.345,0.77-0.771,0.77s-0.771-0.344-0.771-0.77C4.621,3.811,4.966,3.466,5.392,3.466z M9.311,6.563
	C8.832,6.807,8.327,6.994,7.809,7.121c-0.536,0.131-1.09,0.195-1.646,0.195S5.051,7.252,4.516,7.121
	c-0.52-0.127-1.024-0.314-1.502-0.559C2.256,6.176,1.566,5.645,0.996,5.006c0.57-0.635,1.259-1.168,2.018-1.556
	C3.402,3.252,3.811,3.09,4.23,2.968c-0.24,0.364-0.379,0.8-0.379,1.269c0,1.275,1.033,2.311,2.311,2.311
	c1.276,0,2.311-1.035,2.311-2.311c0-0.469-0.14-0.904-0.379-1.269C8.514,3.09,8.921,3.252,9.311,3.45
	c0.758,0.387,1.447,0.92,2.018,1.556C10.757,5.645,10.068,6.176,9.311,6.563z M10.361,1.008C9.053,0.339,7.641,0,6.162,0
	S3.271,0.339,1.963,1.008C1.256,1.368,0.594,1.824,0,2.356v1.074c0.666-0.705,1.452-1.297,2.313-1.737
	C3.512,1.08,4.807,0.77,6.162,0.77c1.354,0,2.65,0.311,3.849,0.923c0.86,0.44,1.647,1.032,2.313,1.737V2.356
	C11.729,1.824,11.068,1.368,10.361,1.008z"/>
<g>
</g>
<g>
</g>
<g>
</g>
<g>
</g>
<g>
</g>
<g>
</g>
<g>
</g>
<g>
</g>
<g>
</g>
<g>
</g>
<g>
</g>
<g>
</g>
<g>
</g>
<g>
</g>
<g>
</g>
</svg>
