<?xml version="1.0" encoding="utf-8"?>
<!-- Generator: Adobe Illustrator 16.0.0, SVG Export Plug-In . SVG Version: 6.00 Build 0)  -->
<!DOCTYPE svg PUBLIC "-//W3C//DTD SVG 1.1//EN" "http://www.w3.org/Graphics/SVG/1.1/DTD/svg11.dtd">
<svg version="1.1" id="Layer_1" xmlns="http://www.w3.org/2000/svg" xmlns:xlink="http://www.w3.org/1999/xlink" x="0px" y="0px"
	 width="21px" height="21px" viewBox="0 0 21 21" enable-background="new 0 0 21 21" xml:space="preserve">
<path fill="#808080" d="M20.349,17.869l-4.975-4.23c-0.516-0.463-1.063-0.675-1.509-0.654c1.175-1.375,1.885-3.159,1.885-5.11
	C15.75,3.526,12.224,0,7.875,0S0,3.526,0,7.875c0,4.348,3.526,7.875,7.875,7.875c1.95,0,3.735-0.709,5.11-1.884
	c-0.021,0.444,0.191,0.993,0.655,1.509l4.231,4.975c0.724,0.804,1.905,0.873,2.629,0.15C21.223,19.777,21.153,18.594,20.349,17.869z
	 M7.875,13.125c-2.898,0-5.249-2.351-5.249-5.25c0-2.899,2.351-5.25,5.249-5.25s5.25,2.351,5.25,5.25
	C13.125,10.774,10.773,13.125,7.875,13.125z"/>
<g>
</g>
<g>
</g>
<g>
</g>
<g>
</g>
<g>
</g>
<g>
</g>
<g>
</g>
<g>
</g>
<g>
</g>
<g>
</g>
<g>
</g>
<g>
</g>
<g>
</g>
<g>
</g>
<g>
</g>
</svg>
