<?xml version="1.0" encoding="utf-8"?>
<!-- Generator: Adobe Illustrator 16.0.0, SVG Export Plug-In . SVG Version: 6.00 Build 0)  -->
<!DOCTYPE svg PUBLIC "-//W3C//DTD SVG 1.1//EN" "http://www.w3.org/Graphics/SVG/1.1/DTD/svg11.dtd">
<svg version="1.1" id="Layer_1" xmlns="http://www.w3.org/2000/svg" xmlns:xlink="http://www.w3.org/1999/xlink" x="0px" y="0px"
	 width="16px" height="17px" viewBox="0 0 16 17" enable-background="new 0 0 16 17" xml:space="preserve">
<g>
	<g>
		<path fill="#F1F6F7" d="M13.559,9.599c1.74,0,2.341-2.203,0.598-2.203c-1.195,0-5.878,0-5.878,0
			C8.49,6.56,8.885,3.883,8.885,3.883C8.797,2.583,7.917,0.946,7.917,0.946C6.878,0.513,6.41,1.114,6.41,1.114
			s0.056,2.063,0.056,2.541c0,0.479-2.383,4.296-2.964,4.783c-0.584,0.493-2.029,1.33-2.029,1.33
			c-1.728,4.139,0.398,5.811,0.398,5.811s0.43,0,1.114,0c0.415,0,0.929,0.639,1.488,0.639c2.611,0,6.375,0,7.288,0
			c1.744,0,2.344-2.209,0.598-2.209c1.746,0,2.341-2.202,0.602-2.202C14.698,11.805,15.299,9.599,13.559,9.599z"/>
	</g>
	<g>
		<path fill="#33ADFF" d="M13.559,9.599c1.74,0,2.341-2.203,0.598-2.203c-1.195,0-5.878,0-5.878,0
			C8.49,6.56,8.885,3.883,8.885,3.883C8.797,2.583,7.917,0.946,7.917,0.946C6.878,0.513,6.41,1.114,6.41,1.114
			s0.056,2.063,0.056,2.541c0,0.479-2.383,4.296-2.964,4.783c-0.584,0.493-2.029,1.33-2.029,1.33
			c-1.728,4.139,0.398,5.811,0.398,5.811s0.43,0,1.114,0c0.415,0,0.929,0.639,1.488,0.639c2.611,0,6.375,0,7.288,0
			c1.744,0,2.344-2.209,0.598-2.209c1.746,0,2.341-2.202,0.602-2.202C14.698,11.805,15.299,9.599,13.559,9.599z"/>
	</g>
	<path fill="#FFFFFF" d="M7.202,0.79c0.201,0,0.435,0.043,0.716,0.157c0,0,0.879,1.637,0.967,2.937c0,0-0.395,2.677-0.606,3.513
		c0,0,4.683,0,5.878,0c1.743,0,1.143,2.203-0.598,2.203c1.74,0,1.14,2.206-0.6,2.206c1.739,0,1.145,2.202-0.602,2.202
		c1.746,0,1.146,2.209-0.598,2.209c-0.913,0-4.677,0-7.288,0c-0.559,0-1.073-0.639-1.488-0.639c-0.684,0-1.114,0-1.114,0
		s-2.125-1.672-0.398-5.811c0,0,1.445-0.837,2.029-1.33C4.082,7.95,6.465,4.134,6.465,3.654c0-0.477-0.056-2.541-0.056-2.541
		S6.66,0.79,7.202,0.79 M7.202,0L7.202,0C6.516,0,6.007,0.339,5.779,0.624C5.667,0.775,5.61,0.946,5.61,1.133
		c0,0.018,0.049,1.864,0.058,2.441C5.424,4.267,3.438,7.438,2.984,7.843c-0.433,0.362-1.528,1.022-1.91,1.244
		C0.923,9.173,0.803,9.308,0.737,9.464c-1.932,4.627,0.533,6.648,0.636,6.73c0.144,0.109,0.315,0.17,0.498,0.17h1.057
		c0.063,0.029,0.176,0.108,0.258,0.16C3.503,16.724,3.934,17,4.472,17h7.288c1.462,0,2.443-1.122,2.443-2.165
		c0-0.236-0.049-0.46-0.143-0.666c0.469-0.418,0.74-0.985,0.74-1.535c0-0.238-0.051-0.463-0.143-0.66
		c0.469-0.428,0.739-0.992,0.739-1.544c0-0.238-0.048-0.462-0.14-0.666C15.727,9.347,16,8.778,16,8.227
		c0-0.461-0.186-0.873-0.518-1.171C15.25,6.854,14.834,6.61,14.156,6.61h-4.91c0.2-1.105,0.416-2.535,0.426-2.614
		C9.681,3.938,9.681,3.884,9.681,3.83c-0.104-1.453-1.017-3.177-1.06-3.251c-0.087-0.16-0.226-0.285-0.393-0.356
		C7.873,0.077,7.533,0,7.202,0L7.202,0z"/>
</g>
<g>
</g>
<g>
</g>
<g>
</g>
<g>
</g>
<g>
</g>
<g>
</g>
<g>
</g>
<g>
</g>
<g>
</g>
<g>
</g>
<g>
</g>
<g>
</g>
<g>
</g>
<g>
</g>
<g>
</g>
</svg>
