<?xml version="1.0" encoding="utf-8"?>
<!-- Generator: Adobe Illustrator 16.0.0, SVG Export Plug-In . SVG Version: 6.00 Build 0)  -->
<!DOCTYPE svg PUBLIC "-//W3C//DTD SVG 1.1//EN" "http://www.w3.org/Graphics/SVG/1.1/DTD/svg11.dtd">
<svg version="1.1" id="Layer_1" xmlns="http://www.w3.org/2000/svg" xmlns:xlink="http://www.w3.org/1999/xlink" x="0px" y="0px"
	 width="30px" height="21px" viewBox="0 0 30 21" enable-background="new 0 0 30 21" xml:space="preserve">
<path fill="#FFFFFF" d="M9.022,11.374c0,3.082,2.678,5.579,5.977,5.579c3.301,0,5.976-2.497,5.976-5.579
	c0-3.081-2.675-5.578-5.976-5.578C11.7,5.796,9.022,8.293,9.022,11.374z M28.123,3.5h-6.562C21.093,1.75,20.624,0,18.748,0h-7.499
	C9.374,0,8.904,1.75,8.437,3.5H1.875C0.844,3.5,0,4.287,0,5.251v13.998C0,20.214,0.844,21,1.875,21h26.248
	C29.154,21,30,20.214,30,19.249V5.251C30,4.287,29.154,3.5,28.123,3.5z M14.999,19.249c-4.659,0-8.437-3.525-8.437-7.875
	c0-4.348,3.777-7.875,8.437-7.875c4.661,0,8.438,3.527,8.438,7.875C23.438,15.724,19.66,19.249,14.999,19.249z M28.123,7.002h-3.75
	v-1.75h3.75V7.002z"/>
<g>
</g>
<g>
</g>
<g>
</g>
<g>
</g>
<g>
</g>
<g>
</g>
<g>
</g>
<g>
</g>
<g>
</g>
<g>
</g>
<g>
</g>
<g>
</g>
<g>
</g>
<g>
</g>
<g>
</g>
</svg>
