<?xml version="1.0" encoding="utf-8"?>
<!-- Generator: Adobe Illustrator 16.0.0, SVG Export Plug-In . SVG Version: 6.00 Build 0)  -->
<!DOCTYPE svg PUBLIC "-//W3C//DTD SVG 1.1//EN" "http://www.w3.org/Graphics/SVG/1.1/DTD/svg11.dtd">
<svg version="1.1" id="Layer_1" xmlns="http://www.w3.org/2000/svg" xmlns:xlink="http://www.w3.org/1999/xlink" x="0px" y="0px"
	 width="45px" height="45px" viewBox="0 0 45 45" enable-background="new 0 0 45 45" xml:space="preserve">
<g>
	<path opacity="0.8" fill="#4D4D4D" d="M44.324,22.5c0,12.055-9.771,21.825-21.82,21.825c-12.051,0-21.828-9.771-21.828-21.825
		c0-12.053,9.777-21.825,21.828-21.825C34.554,0.675,44.324,10.447,44.324,22.5z"/>
	<path fill="#33ADFF" d="M22.499,0C10.077,0,0,10.074,0,22.5C0,34.928,10.077,45,22.499,45c12.428,0,22.499-10.072,22.499-22.5
		C44.998,10.074,34.927,0,22.499,0z M22.499,42.188c-10.878,0-19.687-8.815-19.687-19.688c0-10.877,8.809-19.686,19.687-19.686
		c10.873,0,19.687,8.809,19.687,19.686C42.186,33.372,33.372,42.188,22.499,42.188z M16.874,32.244L33.749,22.5l-16.875-9.738
		V32.244z"/>
	<polygon fill="#FFFFFF" points="16.874,32.244 33.749,22.5 16.874,12.762 	"/>
</g>
<g>
</g>
<g>
</g>
<g>
</g>
<g>
</g>
<g>
</g>
<g>
</g>
<g>
</g>
<g>
</g>
<g>
</g>
<g>
</g>
<g>
</g>
<g>
</g>
<g>
</g>
<g>
</g>
<g>
</g>
</svg>
