<?xml version="1.0" encoding="utf-8"?>
<!-- Generator: Adobe Illustrator 16.0.0, SVG Export Plug-In . SVG Version: 6.00 Build 0)  -->
<!DOCTYPE svg PUBLIC "-//W3C//DTD SVG 1.1//EN" "http://www.w3.org/Graphics/SVG/1.1/DTD/svg11.dtd">
<svg version="1.1" id="Layer_1" xmlns="http://www.w3.org/2000/svg" xmlns:xlink="http://www.w3.org/1999/xlink" x="0px" y="0px"
	 width="22.152px" height="20.769px" viewBox="0 0 22.152 20.769" enable-background="new 0 0 22.152 20.769" xml:space="preserve">
<path fill="#CCCCCC" d="M11.076,0C4.959,0,0,4.959,0,11.076c0,3.312,1.451,6.279,3.75,8.308c0.6,0.529,1.256,0.996,1.961,1.385
	h5.365h5.365c0.701-0.389,1.359-0.855,1.961-1.385c2.299-2.029,3.75-4.996,3.75-8.308C22.152,4.959,17.193,0,11.076,0z
	 M17.93,17.931c-0.564,0.564-1.186,1.049-1.857,1.453H6.08c-0.672-0.404-1.295-0.889-1.857-1.451c-0.891-0.893-1.59-1.93-2.08-3.084
	c-0.502-1.193-0.76-2.461-0.76-3.773h2.77V9.693h-2.67C1.6,8.871,1.818,8.074,2.143,7.305C2.543,6.365,3.082,5.5,3.75,4.731
	l1.967,1.966c0.291-0.359,0.619-0.688,0.978-0.98L4.727,3.752c0.771-0.669,1.634-1.209,2.578-1.604
	c0.248-0.106,0.5-0.199,0.752-0.282l0.677,2.696c0.43-0.153,0.879-0.269,1.344-0.335L9.404,1.528
	c0.547-0.095,1.106-0.144,1.672-0.144c0.564,0,1.125,0.049,1.674,0.145l-0.676,2.697c0.465,0.066,0.914,0.182,1.344,0.335
	l0.674-2.696c0.256,0.083,0.508,0.178,0.756,0.282c0.941,0.398,1.805,0.937,2.576,1.604l-1.967,1.965
	c0.359,0.293,0.684,0.621,0.98,0.98l1.965-1.966c0.668,0.769,1.207,1.634,1.605,2.575c0.324,0.768,0.545,1.564,0.662,2.388
	l-2.672-0.001v1.383h2.768c0,1.312-0.254,2.58-0.758,3.773C19.518,16.003,18.82,17.041,17.93,17.931z M10.482,6.924L9.691,18h2.77
	L11.67,6.924H10.482z"/>
<g>
</g>
<g>
</g>
<g>
</g>
<g>
</g>
<g>
</g>
<g>
</g>
<g>
</g>
<g>
</g>
<g>
</g>
<g>
</g>
<g>
</g>
<g>
</g>
<g>
</g>
<g>
</g>
<g>
</g>
</svg>
