<?xml version="1.0" encoding="utf-8"?>
<!-- Generator: Adobe Illustrator 16.0.0, SVG Export Plug-In . SVG Version: 6.00 Build 0)  -->
<!DOCTYPE svg PUBLIC "-//W3C//DTD SVG 1.1//EN" "http://www.w3.org/Graphics/SVG/1.1/DTD/svg11.dtd">
<svg version="1.1" id="Layer_1" xmlns="http://www.w3.org/2000/svg" xmlns:xlink="http://www.w3.org/1999/xlink" x="0px" y="0px"
	 width="13px" height="17.063px" viewBox="0 0 13 17.063" enable-background="new 0 0 13 17.063" xml:space="preserve">
<path id="Twitter_2_" fill="#FFFFFF" d="M10.57,12.797H6.36c-0.585,0-1.083-0.205-1.492-0.617s-0.613-0.908-0.613-1.498V9.184h6
	c0.541,0,1.007-0.194,1.395-0.581c0.387-0.389,0.581-0.855,0.581-1.396c0-0.543-0.194-1.009-0.582-1.397
	c-0.389-0.387-0.855-0.581-1.398-0.581H4.256V2.134c0-0.586-0.208-1.087-0.623-1.505C3.219,0.21,2.72,0,2.14,0
	C1.543,0,1.035,0.207,0.62,0.616C0.208,1.027,0,1.533,0,2.135v8.548c0,1.758,0.62,3.26,1.865,4.508
	c1.244,1.248,2.744,1.871,4.498,1.871h4.21c0.584,0,1.085-0.209,1.503-0.629c0.418-0.416,0.626-0.918,0.626-1.504
	c0-0.584-0.208-1.086-0.626-1.504C11.656,13.006,11.155,12.797,10.57,12.797z"/>
<g>
</g>
<g>
</g>
<g>
</g>
<g>
</g>
<g>
</g>
<g>
</g>
<g>
</g>
<g>
</g>
<g>
</g>
<g>
</g>
<g>
</g>
<g>
</g>
<g>
</g>
<g>
</g>
<g>
</g>
</svg>
