<?xml version="1.0" encoding="utf-8"?>
<!-- Generator: Adobe Illustrator 16.0.0, SVG Export Plug-In . SVG Version: 6.00 Build 0)  -->
<!DOCTYPE svg PUBLIC "-//W3C//DTD SVG 1.1//EN" "http://www.w3.org/Graphics/SVG/1.1/DTD/svg11.dtd">
<svg version="1.1" id="Layer_1" xmlns="http://www.w3.org/2000/svg" xmlns:xlink="http://www.w3.org/1999/xlink" x="0px" y="0px"
	 width="8.117px" height="17.391px" viewBox="0 0 8.117 17.391" enable-background="new 0 0 8.117 17.391" xml:space="preserve">
<path id="Facebook_3_" fill="#FFFFFF" d="M1.755,3.367c0,0.438,0,2.396,0,2.396H0v2.927h1.755v8.701h3.604V8.689h2.418
	c0,0,0.228-1.402,0.336-2.939c-0.313,0-2.741,0-2.741,0s0-1.703,0-2c0-0.3,0.395-0.703,0.782-0.703c0.389,0,1.206,0,1.964,0
	c0-0.398,0-1.775,0-3.047c-1.012,0-2.163,0-2.67,0C1.665,0,1.755,2.93,1.755,3.367z"/>
<g>
</g>
<g>
</g>
<g>
</g>
<g>
</g>
<g>
</g>
<g>
</g>
<g>
</g>
<g>
</g>
<g>
</g>
<g>
</g>
<g>
</g>
<g>
</g>
<g>
</g>
<g>
</g>
<g>
</g>
</svg>
