<?xml version="1.0" encoding="utf-8"?>
<!-- Generator: Adobe Illustrator 16.0.0, SVG Export Plug-In . SVG Version: 6.00 Build 0)  -->
<!DOCTYPE svg PUBLIC "-//W3C//DTD SVG 1.1//EN" "http://www.w3.org/Graphics/SVG/1.1/DTD/svg11.dtd">
<svg version="1.1" id="Layer_1" xmlns="http://www.w3.org/2000/svg" xmlns:xlink="http://www.w3.org/1999/xlink" x="0px" y="0px"
	 width="13.492px" height="16.869px" viewBox="0 0 13.492 16.869" enable-background="new 0 0 13.492 16.869" xml:space="preserve">
<g id="V2_xA0_Clipping_Path">
	<g>
		<path fill="#FFFFFF" d="M12.553,8.967c-0.627-0.676-1.461-1.124-2.504-1.342V7.534c0.725-0.302,1.293-0.774,1.705-1.416
			s0.617-1.375,0.617-2.198c0-0.709-0.148-1.337-0.447-1.88c-0.299-0.544-0.75-0.979-1.354-1.303
			c-0.559-0.302-1.158-0.5-1.795-0.595C8.137,0.047,7.198,0,5.959,0H0v16.869h6.752c1.171,0,2.136-0.105,2.894-0.316
			c0.76-0.212,1.457-0.566,2.09-1.065c0.537-0.415,0.965-0.94,1.281-1.575c0.316-0.634,0.475-1.371,0.475-2.209
			C13.492,10.556,13.18,9.644,12.553,8.967z M4.215,3.093h0.294c0.755,0,1.323,0.006,1.705,0.017
			c0.381,0.011,0.711,0.078,0.991,0.199C7.5,3.437,7.717,3.645,7.857,3.931C7.996,4.218,8.066,4.498,8.066,4.77
			c0,0.37-0.064,0.695-0.193,0.974c-0.127,0.28-0.361,0.499-0.701,0.657c-0.31,0.143-0.61,0.223-0.901,0.238
			C5.98,6.654,5.472,6.662,4.747,6.662H4.215V3.093z M8.865,12.718c-0.178,0.321-0.459,0.564-0.844,0.73
			c-0.438,0.188-0.869,0.29-1.292,0.306s-1.186,0.023-2.288,0.023H4.215V9.551h0.781c0.755,0,1.358,0.006,1.807,0.018
			c0.449,0.011,0.802,0.066,1.059,0.164c0.423,0.15,0.741,0.373,0.952,0.668s0.316,0.703,0.316,1.224
			C9.131,12.032,9.043,12.396,8.865,12.718z"/>
	</g>
</g>
<g>
</g>
<g>
</g>
<g>
</g>
<g>
</g>
<g>
</g>
<g>
</g>
<g>
</g>
<g>
</g>
<g>
</g>
<g>
</g>
<g>
</g>
<g>
</g>
<g>
</g>
<g>
</g>
<g>
</g>
</svg>
