<?xml version="1.0" encoding="utf-8"?>
<!-- Generator: Adobe Illustrator 17.1.0, SVG Export Plug-In . SVG Version: 6.00 Build 0)  -->
<!DOCTYPE svg PUBLIC "-//W3C//DTD SVG 1.1//EN" "http://www.w3.org/Graphics/SVG/1.1/DTD/svg11.dtd">
<svg version="1.1" id="Layer_1" xmlns="http://www.w3.org/2000/svg" xmlns:xlink="http://www.w3.org/1999/xlink" x="0px" y="0px"
	 viewBox="0 0 149.2 27.6" enable-background="new 0 0 149.2 27.6" xml:space="preserve">
<path fill="#FFFFFF" d="M-3.2-2.8v32.5h154.9V-2.8H-3.2z M23.3,26.7l-8.6-4.4L6,26.7l1.7-9.4l-7-6.7l9.7-1.4l4.3-8.6L19,9.3l9.7,1.4
	l-7,6.7L23.3,26.7z M53.3,26.7l-8.6-4.4L36,26.7l1.7-9.4l-7-6.7l9.7-1.4l4.3-8.6L49,9.3l9.7,1.4l-7,6.7L53.3,26.7z M83.3,26.7
	l-8.6-4.4L66,26.7l1.7-9.4l-7-6.7l9.7-1.4l4.3-8.6L79,9.3l9.7,1.4l-7,6.7L83.3,26.7z M113.3,26.7l-8.6-4.4L96,26.7l1.7-9.4l-7-6.7
	l9.7-1.4l4.3-8.6l4.3,8.6l9.7,1.4l-7,6.7L113.3,26.7z M143.3,26.7l-8.6-4.4l-8.7,4.4l1.7-9.4l-7-6.7l9.7-1.4l4.3-8.6l4.3,8.6
	l9.7,1.4l-7,6.7L143.3,26.7z"/>
<polygon fill="#D9D9D8" points="262.7,13.3 258.4,4.7 254.1,13.3 244.4,14.6 251.4,21.3 249.7,30.7 258.4,26.3 267,30.7 265.4,21.3 
	272.4,14.6 "/>
<polygon fill="#D9D9D8" points="292.7,13.3 288.4,4.7 284.1,13.3 274.4,14.6 281.4,21.3 279.7,30.7 288.4,26.3 297,30.7 295.4,21.3 
	302.4,14.6 "/>
<polygon fill="#D9D9D8" points="322.7,13.3 318.4,4.7 314.1,13.3 304.4,14.6 311.4,21.3 309.7,30.7 318.4,26.3 327,30.7 325.4,21.3 
	332.4,14.6 "/>
</svg>
