<?xml version="1.0" encoding="utf-8"?>
<!-- Generator: Adobe Illustrator 16.0.0, SVG Export Plug-In . SVG Version: 6.00 Build 0)  -->
<!DOCTYPE svg PUBLIC "-//W3C//DTD SVG 1.1//EN" "http://www.w3.org/Graphics/SVG/1.1/DTD/svg11.dtd">
<svg version="1.1" id="Layer_1" xmlns="http://www.w3.org/2000/svg" xmlns:xlink="http://www.w3.org/1999/xlink" x="0px" y="0px"
	 width="30px" height="21px" viewBox="0 0 30 21" enable-background="new 0 0 30 21" xml:space="preserve">
<g id="toolbar_icons_column_1">
	<path fill="#737373" d="M20.861,491.619c-0.76-0.776-1.299-1.285-2.602-1.533v-0.101c0.924-0.393,1.644-0.938,2.15-1.643
		c0.503-0.701,0.76-1.512,0.76-2.431c0-0.788-0.184-1.493-0.555-2.112c-0.371-0.613-0.93-1.107-1.687-1.472
		c-0.728-0.351-1.466-0.574-2.21-0.676c-0.741-0.102-2.402-0.152-4.006-0.152H5v19h8.674c1.439,0,2.633-0.117,3.572-0.356
		c0.938-0.239,1.797-0.641,2.581-1.197c0.675-0.48,1.206-1.077,1.595-1.805c0.387-0.723,0.578-1.541,0.578-2.461
		C22,493.413,21.622,492.394,20.861,491.619z M10.395,485.28h2.209c0.771,0,1.406,0.089,1.904,0.265
		c0.577,0.252,0.865,0.774,0.865,1.563c0,0.713-0.217,1.21-0.654,1.49c-0.437,0.279-1.005,0.419-1.705,0.419h-2.619V485.28z
		 M15.004,496.425c-0.389,0.198-0.933,0.298-1.631,0.298h-2.979v-4.52h3.031c0.692,0.009,1.229,0.104,1.611,0.288
		c0.684,0.33,1.027,0.936,1.027,1.817C16.064,495.352,15.711,496.057,15.004,496.425z"/>
	<path fill-rule="evenodd" clip-rule="evenodd" fill="#737373" d="M0.238,452.729c0.033-0.186,0.066-0.369,0.099-0.555
		c0.185-1.057,0.597-2.025,1.13-2.948c0.617-1.068,1.374-2.032,2.215-2.933c1.037-1.111,2.174-2.101,3.455-2.922
		c0.947-0.611,1.944-1.12,3.049-1.391c0.534-0.131,1.075-0.196,1.626-0.101c0.874,0.153,1.446,0.758,1.554,1.64
		c0.084,0.666-0.041,1.307-0.228,1.942c-0.009,0.038-0.022,0.078-0.03,0.118c-0.043,0.203,0.076,0.328,0.284,0.303
		c0.248-0.027,0.468-0.142,0.699-0.23c0.821-0.321,1.664-0.574,2.542-0.686c0.707-0.089,1.408-0.093,2.094,0.153
		c0.838,0.301,1.306,1.022,1.254,1.909c-0.027,0.494-0.157,0.961-0.334,1.416c-0.024,0.061-0.043,0.119-0.055,0.184
		c-0.031,0.186,0.018,0.294,0.188,0.381c0.2,0.102,0.423,0.141,0.632,0.219c0.668,0.252,1.287,0.588,1.807,1.082
		c0.942,0.902,1.248,2,0.963,3.264c-0.189,0.845-0.608,1.578-1.143,2.25c-0.898,1.131-2.034,1.975-3.299,2.646
		c-1.564,0.827-3.235,1.319-4.982,1.569c-1.109,0.156-2.222,0.206-3.336,0.145c-1.535-0.084-3.04-0.355-4.498-0.861
		c-1.191-0.414-2.316-0.961-3.311-1.744c-1.009-0.794-1.793-1.753-2.167-3.006c-0.087-0.295-0.146-0.594-0.181-0.896
		c-0.002-0.02-0.006-0.037-0.027-0.041C0.238,453.333,0.238,453.031,0.238,452.729z M10.186,458.709
		c0.658-0.01,1.355-0.063,2.045-0.186c1.425-0.25,2.762-0.725,3.972-1.527c0.832-0.549,1.546-1.217,2.036-2.095
		c0.622-1.111,0.724-2.258,0.172-3.426c-0.391-0.829-1.025-1.444-1.787-1.929c-1.377-0.885-2.915-1.257-4.532-1.345
		c-0.823-0.044-1.644,0.003-2.458,0.132c-1.379,0.217-2.681,0.646-3.877,1.367c-0.869,0.523-1.624,1.172-2.186,2.025
		c-0.427,0.65-0.679,1.358-0.684,2.139c-0.007,0.717,0.202,1.378,0.594,1.979c0.587,0.896,1.414,1.508,2.368,1.96
		C7.206,458.449,8.651,458.694,10.186,458.709z M9.893,457.625c0.317,0.008,0.631-0.023,0.94-0.089
		c1.269-0.269,2.31-0.892,3.032-1.989c0.497-0.758,0.711-1.594,0.533-2.493c-0.214-1.077-0.864-1.836-1.842-2.306
		c-1.217-0.586-2.464-0.572-3.705-0.091c-1.111,0.433-1.973,1.159-2.474,2.261c-0.619,1.356-0.274,2.869,0.861,3.807
		C8.008,457.358,8.91,457.615,9.893,457.625z M8.765,456.018c0.688,0,1.335-0.443,1.56-1.073c0.234-0.659-0.089-1.304-0.758-1.509
		c-0.59-0.182-1.304,0.043-1.715,0.543c-0.271,0.33-0.41,0.703-0.318,1.131C7.65,455.657,8.146,456.018,8.765,456.018z
		 M11.171,452.757c-0.331,0.001-0.61,0.265-0.606,0.577c0.002,0.248,0.2,0.433,0.468,0.433c0.317,0,0.624-0.282,0.622-0.576
		C11.654,452.942,11.445,452.755,11.171,452.757z M26.684,445.699c-0.072-0.146-0.035-0.304-0.047-0.451
		c-0.089-1.094-0.41-2.109-0.976-3.047c-0.694-1.148-1.642-2.035-2.841-2.641c-0.819-0.413-1.689-0.652-2.604-0.729
		c-0.019,0-0.033-0.006-0.041-0.027c-0.33,0-0.658,0-0.988,0c-0.008,0.029-0.032,0.027-0.057,0.027
		c-0.318,0.014-0.633,0.071-0.944,0.141c-0.546,0.119-0.876,0.663-0.751,1.213c0.121,0.521,0.653,0.855,1.184,0.744
		c0.585-0.121,1.174-0.147,1.765-0.057c0.981,0.146,1.848,0.541,2.589,1.206c1.047,0.941,1.598,2.122,1.674,3.521
		c0.029,0.556-0.045,1.101-0.209,1.633c-0.047,0.152-0.095,0.307-0.082,0.471c0.039,0.516,0.408,0.883,0.959,0.955
		c0.397,0.051,0.869-0.268,1.006-0.699c0.165-0.523,0.271-1.057,0.316-1.604c0.012-0.146-0.025-0.298,0.047-0.436
		C26.684,445.846,26.684,445.772,26.684,445.699z M22.901,444.754c-0.537-1.639-2.19-2.616-3.879-2.291
		c-0.511,0.098-0.821,0.525-0.735,1.014c0.081,0.461,0.533,0.782,1.043,0.691c0.832-0.152,1.563,0.242,1.885,0.996
		c0.17,0.398,0.145,0.805,0.033,1.218c-0.124,0.456,0.145,0.904,0.598,1.036c0.439,0.127,0.9-0.115,1.051-0.555
		c0.114-0.345,0.176-0.697,0.165-1.054C23.069,445.442,23.013,445.093,22.901,444.754z"/>
	<path fill="#737373" d="M17.049,406.552c0,1.38-1.191,2.497-2.663,2.497c-0.565,0-1.087-0.166-1.517-0.443
		c-4.826,4.848-4.043,11.751-3.934,12.525c0-0.014-0.002-0.021-0.004-0.033c0,0-0.197,0.402-0.669,0.402
		c-0.493,0-0.567-0.34-0.567-0.34s-1.293-8.299,4.34-13.371c0.01-0.006,0.021-0.008,0.034-0.013
		c-0.22-0.363-0.345-0.782-0.345-1.225c0-1.38,1.193-2.497,2.661-2.497C15.857,404.055,17.049,405.172,17.049,406.552z
		 M14.501,399.5c-4.144,0-7.501,3.152-7.501,7.042c0,1.474,0.484,2.843,1.31,3.972c0,0,0.483,0.117,0.866-0.07
		c0.371-0.188,0.457-0.736,0.457-0.736c-0.666-0.898-1.055-1.986-1.055-3.165c0-3.074,2.652-5.565,5.923-5.565
		s5.924,2.491,5.924,5.565c0,3.071-2.653,5.562-5.924,5.562c-0.76,0-1.481-0.135-2.149-0.381c0,0-0.432,0.076-0.568,0.654
		c-0.13,0.533,0.286,0.824,0.286,0.824c0.763,0.248,1.579,0.381,2.432,0.381c4.142,0,7.499-3.152,7.499-7.04
		C22,402.652,18.643,399.5,14.501,399.5z"/>
	<path fill="#737373" d="M17.334,359.5c0,0-5.691,0-7.587,0c-3.403,0-6.604,2.524-6.604,5.449c0,2.986,2.318,5.398,5.779,5.398
		c0.242,0,0.475-0.003,0.702-0.021c-0.224,0.421-0.384,0.896-0.384,1.389c0,0.831,0.457,1.503,1.035,2.052
		c-0.438,0-0.859,0.013-1.32,0.013c-4.212,0.001-7.455,2.63-7.455,5.355c0,2.684,3.558,4.364,7.77,4.364
		c4.803,0,7.457-2.67,7.457-5.354c0-2.152-0.648-3.441-2.654-4.831c-0.686-0.475-1.998-1.633-1.998-2.312
		c0-0.796,0.232-1.188,1.457-2.125c1.256-0.96,2.146-2.312,2.146-3.882c0-1.87-0.854-3.691-2.447-4.293h2.404L17.334,359.5z
		 M14.682,377.681c0.062,0.249,0.094,0.506,0.094,0.767c0,2.17-1.426,3.865-5.521,3.865c-2.912,0-5.016-1.807-5.016-3.976
		c0-2.126,2.609-3.896,5.521-3.865c0.681,0.008,1.316,0.115,1.889,0.298C13.23,375.846,14.363,376.455,14.682,377.681z
		 M10.021,369.592c-1.955-0.059-3.813-2.142-4.151-4.658c-0.336-2.514,0.975-4.438,2.928-4.381c1.956,0.057,3.813,2.074,4.152,4.589
		C13.286,367.657,11.975,369.649,10.021,369.592z M25.061,364.826V359.5H23.25v5.326h-5.438v1.775h5.438v5.326h1.811v-5.326H30.5
		v-1.775H25.061z"/>
	<path fill="#737373" d="M27,340.875c0,1.726-1.399,3.125-3.125,3.125H5.125C3.399,344,2,342.601,2,340.875v-18.75
		C2,320.399,3.399,319,5.125,319h18.75c1.726,0,3.125,1.399,3.125,3.125V340.875z"/>
	<path fill="#FFFFFF" d="M21.063,330.25H16.25v-4.813c0-0.24-0.195-0.438-0.438-0.438h-2.625c-0.242,0-0.438,0.197-0.438,0.438
		v4.813H7.938c-0.241,0-0.438,0.195-0.438,0.438v2.625c0,0.24,0.196,0.438,0.438,0.438h4.813v4.813c0,0.24,0.195,0.438,0.438,0.438
		h2.625c0.242,0,0.438-0.197,0.438-0.438v-4.813h4.813c0.241,0,0.438-0.197,0.438-0.438v-2.625
		C21.5,330.445,21.304,330.25,21.063,330.25z"/>
	<path fill="#737373" d="M16.502,295.682c-1.409-0.109-2-0.803-3.104-1.471c-0.607,3.166-1.35,6.202-3.548,7.789
		c-0.676-4.787,1-8.381,1.773-12.196c-1.324-2.219,0.161-6.685,2.959-5.583c3.439,1.352-2.982,8.249,1.33,9.109
		c4.501,0.898,6.338-7.762,3.547-10.578c-4.03-4.069-11.737-0.096-10.791,5.729c0.232,1.424,1.712,1.856,0.592,3.821
		c-2.58-0.568-3.35-2.593-3.252-5.286c0.16-4.42,3.988-7.511,7.836-7.938c4.857-0.54,9.42,1.774,10.051,6.319
		C24.604,290.523,21.699,296.08,16.502,295.682z"/>
	<path fill="#737373" d="M26.822,240.634c-2.906-2.845-7.617-2.845-10.518,0c-0.531,0.521-0.967,1.104-1.305,1.72
		c-0.336-0.616-0.771-1.198-1.303-1.72c-2.906-2.845-7.613-2.845-10.516,0c-2.908,2.846-2.908,7.46,0,10.304l11.82,11.563
		l11.82-11.563C29.727,248.094,29.727,243.479,26.822,240.634z"/>
	<path fill="#737373" d="M7.501,197.5h15v3.717h-15V197.5z M28.126,203.07H1.876c-1.031,0-1.876,0.838-1.876,1.86v9.283
		c0,1.021,0.845,1.858,1.876,1.858h5.625v7.428h15v-7.428h5.625c1.031,0,1.874-0.837,1.874-1.858v-9.283
		C30,203.908,29.157,203.07,28.126,203.07z M20.625,221.645H9.375v-9.284h11.25V221.645z M28.548,205.859
		c0,0.741-0.61,1.346-1.36,1.346s-1.358-0.604-1.358-1.346c0-0.743,0.608-1.35,1.358-1.35S28.548,205.116,28.548,205.859z"/>
	<path fill="#737373" d="M28,161.484c-0.955,0.422-1.984,0.707-3.063,0.834c1.1-0.656,1.945-1.695,2.346-2.932
		c-1.032,0.609-2.174,1.051-3.389,1.285c-0.971-1.027-2.359-1.672-3.894-1.672c-2.944,0-5.334,2.373-5.334,5.301
		c0,0.418,0.045,0.82,0.138,1.209c-4.434-0.223-8.365-2.334-10.994-5.539c-0.461,0.783-0.724,1.691-0.724,2.664
		c0,1.84,0.943,3.461,2.374,4.414c-0.875-0.029-1.695-0.266-2.418-0.664c0,0.021,0,0.045,0,0.068c0,2.57,1.838,4.709,4.279,5.199
		c-0.448,0.119-0.92,0.184-1.407,0.184c-0.342,0-0.677-0.033-1.003-0.094c0.681,2.105,2.65,3.637,4.984,3.682
		c-1.825,1.42-4.127,2.268-6.625,2.268c-0.432,0-0.857-0.025-1.271-0.076C4.358,179.121,7.163,180,10.174,180
		c9.815,0,15.181-8.08,15.181-15.084c0-0.229-0.006-0.459-0.018-0.688C26.379,163.482,27.287,162.549,28,161.484z"/>
	<path fill="#737373" d="M0,122.918v13.416c0,1.054,0.842,1.917,1.874,1.917h18.282L24.375,144v-5.749h3.749
		c1.034,0,1.876-0.863,1.876-1.917v-13.416c0-1.053-0.842-1.918-1.876-1.918H1.874C0.842,121,0,121.865,0,122.918z M9.374,128.669
		h3.749v-3.834h1.876v3.834h3.751v1.914h-3.751v3.835h-1.876v-3.835H9.374V128.669z"/>
	<path fill="#737373" d="M18.715,91.076L30,99.107V80.613L18.715,91.076z M-1,80.613v18.494l11.285-8.033L-1,80.613z M14.499,94.982
		l-2.694-2.5L-1,100.5h31l-12.807-8.018L14.499,94.982z M29.067,80.5H-0.069l14.568,11.307L29.067,80.5z"/>
	<path fill="#737373" d="M16.852,62h-4.409V50.5H9.5v-3.963l2.942-0.002l-0.004-2.334C12.437,40.967,13.334,39,17.234,39h3.244
		v3.965h-2.027c-1.521,0-1.594,0.553-1.594,1.586l-0.006,1.984H20.5l-0.43,3.963L16.854,50.5L16.852,62z"/>
	<path fill="#737373" d="M9.022,11.373c0,3.083,2.678,5.58,5.977,5.58c3.301,0,5.976-2.497,5.976-5.58
		c0-3.08-2.675-5.576-5.976-5.576C11.7,5.797,9.022,8.293,9.022,11.373z M28.123,3.5h-6.562C21.093,1.75,20.624,0,18.748,0h-7.499
		C9.374,0,8.904,1.75,8.437,3.5H1.875C0.844,3.5,0,4.287,0,5.251V19.25C0,20.215,0.844,21,1.875,21h26.248
		C29.154,21,30,20.215,30,19.25V5.251C30,4.287,29.154,3.5,28.123,3.5z M14.999,19.25c-4.659,0-8.437-3.526-8.437-7.877
		c0-4.348,3.777-7.874,8.437-7.874c4.661,0,8.438,3.526,8.438,7.874C23.438,15.724,19.66,19.25,14.999,19.25z M28.123,7.002h-3.75
		v-1.75h3.75V7.002z"/>
</g>
<g>
</g>
<g>
</g>
<g>
</g>
<g>
</g>
<g>
</g>
<g>
</g>
<g>
</g>
<g>
</g>
<g>
</g>
<g>
</g>
<g>
</g>
<g>
</g>
<g>
</g>
<g>
</g>
<g>
</g>
</svg>
