<?xml version="1.0" encoding="utf-8"?>
<!-- Generator: Adobe Illustrator 16.0.0, SVG Export Plug-In . SVG Version: 6.00 Build 0)  -->
<!DOCTYPE svg PUBLIC "-//W3C//DTD SVG 1.1//EN" "http://www.w3.org/Graphics/SVG/1.1/DTD/svg11.dtd">
<svg version="1.1" id="Layer_1" xmlns="http://www.w3.org/2000/svg" xmlns:xlink="http://www.w3.org/1999/xlink" x="0px" y="0px"
	 width="26px" height="21px" viewBox="0 0 26 21" enable-background="new 0 0 26 21" xml:space="preserve">
<path fill="#737373" d="M26,2.484c-0.955,0.422-1.984,0.707-3.063,0.834c1.1-0.656,1.945-1.695,2.346-2.932
	c-1.032,0.609-2.174,1.051-3.389,1.285C20.924,0.645,19.535,0,18.001,0c-2.944,0-5.334,2.373-5.334,5.301
	c0,0.418,0.045,0.82,0.138,1.209C8.371,6.287,4.44,4.176,1.81,0.971C1.35,1.754,1.087,2.662,1.087,3.635
	c0,1.84,0.943,3.461,2.374,4.414C2.586,8.02,1.765,7.783,1.043,7.385c0,0.021,0,0.045,0,0.068c0,2.57,1.838,4.709,4.279,5.199
	c-0.448,0.119-0.92,0.184-1.407,0.184c-0.342,0-0.676-0.033-1.003-0.094c0.681,2.105,2.65,3.637,4.985,3.682
	c-1.826,1.42-4.127,2.268-6.625,2.268c-0.432,0-0.857-0.025-1.271-0.076C2.358,20.121,5.163,21,8.174,21
	c9.815,0,15.181-8.08,15.181-15.084c0-0.229-0.006-0.459-0.018-0.688C24.379,4.482,25.287,3.549,26,2.484z"/>
<g>
</g>
<g>
</g>
<g>
</g>
<g>
</g>
<g>
</g>
<g>
</g>
<g>
</g>
<g>
</g>
<g>
</g>
<g>
</g>
<g>
</g>
<g>
</g>
<g>
</g>
<g>
</g>
<g>
</g>
</svg>
