<?xml version="1.0" encoding="utf-8"?>
<!-- Generator: Adobe Illustrator 16.0.0, SVG Export Plug-In . SVG Version: 6.00 Build 0)  -->
<!DOCTYPE svg PUBLIC "-//W3C//DTD SVG 1.1//EN" "http://www.w3.org/Graphics/SVG/1.1/DTD/svg11.dtd">
<svg version="1.1" id="Layer_1" xmlns="http://www.w3.org/2000/svg" xmlns:xlink="http://www.w3.org/1999/xlink" x="0px" y="0px"
	 width="29px" height="24px" viewBox="0 0 29 24" enable-background="new 0 0 29 24" xml:space="preserve">
<path fill="#737373" d="M15.834,0c0,0-5.692,0-7.587,0C4.844,0,1.643,2.524,1.643,5.449c0,2.987,2.318,5.398,5.779,5.398
	c0.242,0,0.474-0.003,0.702-0.021c-0.224,0.421-0.383,0.896-0.383,1.389c0,0.831,0.456,1.503,1.034,2.052
	c-0.437,0-0.858,0.013-1.319,0.013C3.243,14.281,0,16.91,0,19.636C0,22.319,3.558,24,7.769,24c4.804,0,7.458-2.67,7.458-5.354
	c0-2.152-0.648-3.441-2.654-4.831c-0.687-0.475-1.998-1.632-1.998-2.312c0-0.796,0.232-1.189,1.457-2.125
	c1.256-0.96,2.146-2.311,2.146-3.882c0-1.87-0.853-3.691-2.447-4.293h2.404L15.834,0z M13.182,18.181
	c0.061,0.249,0.094,0.506,0.094,0.767c0,2.17-1.427,3.865-5.521,3.865c-2.913,0-5.017-1.807-5.017-3.976
	c0-2.126,2.609-3.896,5.522-3.865c0.681,0.008,1.316,0.115,1.888,0.298C11.73,16.346,12.863,16.955,13.182,18.181z M8.521,10.091
	C6.565,10.033,4.707,7.95,4.37,5.434C4.034,2.92,5.343,0.995,7.297,1.052c1.956,0.057,3.812,2.075,4.151,4.589
	C11.786,8.157,10.474,10.149,8.521,10.091z M23.561,5.327V0H21.75v5.327h-5.438v1.775h5.438v5.327h1.811V7.102H29V5.327H23.561z"/>
<g>
</g>
<g>
</g>
<g>
</g>
<g>
</g>
<g>
</g>
<g>
</g>
<g>
</g>
<g>
</g>
<g>
</g>
<g>
</g>
<g>
</g>
<g>
</g>
<g>
</g>
<g>
</g>
<g>
</g>
</svg>
