<?xml version="1.0" encoding="utf-8"?>
<!-- Generator: Adobe Illustrator 16.0.0, SVG Export Plug-In . SVG Version: 6.00 Build 0)  -->
<!DOCTYPE svg PUBLIC "-//W3C//DTD SVG 1.1//EN" "http://www.w3.org/Graphics/SVG/1.1/DTD/svg11.dtd">
<svg version="1.1" id="Layer_1" xmlns="http://www.w3.org/2000/svg" xmlns:xlink="http://www.w3.org/1999/xlink" x="0px" y="0px"
	 width="17px" height="19px" viewBox="0 0 17 19" enable-background="new 0 0 17 19" xml:space="preserve">
<path fill="#737373" d="M15.861,10.119c-0.76-0.776-1.299-1.285-2.602-1.533V8.485c0.924-0.393,1.644-0.938,2.15-1.643
	c0.503-0.701,0.76-1.512,0.76-2.431c0-0.788-0.184-1.493-0.555-2.112c-0.371-0.613-0.93-1.107-1.687-1.472
	c-0.728-0.351-1.466-0.574-2.21-0.676C10.978,0.051,9.316,0,7.712,0H0v19h8.674c1.439,0,2.633-0.117,3.572-0.356
	c0.938-0.239,1.797-0.641,2.581-1.197c0.675-0.48,1.206-1.077,1.595-1.805C16.809,14.919,17,14.101,17,13.181
	C17,11.913,16.622,10.894,15.861,10.119z M5.395,3.78h2.208c0.772,0,1.407,0.089,1.905,0.265c0.577,0.252,0.865,0.774,0.865,1.563
	c0,0.713-0.217,1.21-0.654,1.49C9.282,7.378,8.714,7.518,8.014,7.518h-2.62V3.78z M10.004,14.925
	c-0.389,0.198-0.933,0.298-1.631,0.298H5.395v-4.52h3.032c0.692,0.009,1.228,0.104,1.611,0.288c0.684,0.33,1.027,0.936,1.027,1.817
	C11.064,13.852,10.711,14.557,10.004,14.925z"/>
<g>
</g>
<g>
</g>
<g>
</g>
<g>
</g>
<g>
</g>
<g>
</g>
<g>
</g>
<g>
</g>
<g>
</g>
<g>
</g>
<g>
</g>
<g>
</g>
<g>
</g>
<g>
</g>
<g>
</g>
</svg>
