<?xml version="1.0" encoding="utf-8"?>
<!-- Generator: Adobe Illustrator 16.0.0, SVG Export Plug-In . SVG Version: 6.00 Build 0)  -->
<!DOCTYPE svg PUBLIC "-//W3C//DTD SVG 1.1//EN" "http://www.w3.org/Graphics/SVG/1.1/DTD/svg11.dtd">
<svg version="1.1" id="Layer_1" xmlns="http://www.w3.org/2000/svg" xmlns:xlink="http://www.w3.org/1999/xlink" x="0px" y="0px"
	 width="18px" height="23px" viewBox="0 0 18 23" enable-background="new 0 0 18 23" xml:space="preserve">
<path fill="#737373" d="M10.502,16.682c-1.409-0.109-2-0.803-3.104-1.471C6.79,18.377,6.048,21.413,3.849,23
	c-0.676-4.787,1-8.381,1.774-12.196C4.299,8.585,5.784,4.119,8.582,5.22c3.439,1.353-2.982,8.25,1.33,9.11
	c4.501,0.898,6.338-7.762,3.547-10.579C9.429-0.317,1.722,3.657,2.668,9.48C2.9,10.904,4.38,11.337,3.26,13.302
	c-2.58-0.568-3.35-2.593-3.251-5.287c0.159-4.419,3.988-7.51,7.835-7.938c4.858-0.54,9.42,1.774,10.051,6.32
	C18.604,11.523,15.699,17.08,10.502,16.682z"/>
<g>
</g>
<g>
</g>
<g>
</g>
<g>
</g>
<g>
</g>
<g>
</g>
<g>
</g>
<g>
</g>
<g>
</g>
<g>
</g>
<g>
</g>
<g>
</g>
<g>
</g>
<g>
</g>
<g>
</g>
</svg>
