<?xml version="1.0" encoding="utf-8"?>
<!-- Generator: Adobe Illustrator 16.0.0, SVG Export Plug-In . SVG Version: 6.00 Build 0)  -->
<!DOCTYPE svg PUBLIC "-//W3C//DTD SVG 1.1//EN" "http://www.w3.org/Graphics/SVG/1.1/DTD/svg11.dtd">
<svg version="1.1" id="Layer_1" xmlns="http://www.w3.org/2000/svg" xmlns:xlink="http://www.w3.org/1999/xlink" x="0px" y="0px"
	 width="15px" height="22px" viewBox="0 0 15 22" enable-background="new 0 0 15 22" xml:space="preserve">
<path fill="#737373" d="M10.049,7.052c0,1.379-1.191,2.497-2.663,2.497c-0.565,0-1.087-0.166-1.517-0.443
	c-4.826,4.848-4.043,11.751-3.933,12.525c0-0.014-0.002-0.021-0.004-0.033c0,0-0.197,0.402-0.669,0.402
	c-0.494,0-0.567-0.34-0.567-0.34S-0.598,13.361,5.035,8.29c0.01-0.006,0.022-0.008,0.035-0.013c-0.22-0.363-0.344-0.782-0.344-1.225
	c0-1.38,1.192-2.498,2.661-2.498C8.857,4.554,10.049,5.672,10.049,7.052z M7.501,0C3.357,0,0,3.153,0,7.042
	c0,1.473,0.484,2.843,1.31,3.972c0,0,0.484,0.116,0.866-0.071c0.371-0.187,0.457-0.736,0.457-0.736
	C1.967,9.309,1.578,8.22,1.578,7.042c0-3.074,2.653-5.565,5.923-5.565c3.271,0,5.924,2.491,5.924,5.565
	c0,3.072-2.653,5.562-5.924,5.562c-0.76,0-1.481-0.135-2.149-0.381c0,0-0.432,0.076-0.569,0.654
	c-0.129,0.533,0.287,0.824,0.287,0.824c0.763,0.248,1.58,0.381,2.432,0.381c4.142,0,7.499-3.153,7.499-7.04
	C15,3.153,11.643,0,7.501,0z"/>
<g>
</g>
<g>
</g>
<g>
</g>
<g>
</g>
<g>
</g>
<g>
</g>
<g>
</g>
<g>
</g>
<g>
</g>
<g>
</g>
<g>
</g>
<g>
</g>
<g>
</g>
<g>
</g>
<g>
</g>
</svg>
