<?xml version="1.0" encoding="utf-8"?>
<!-- Generator: Adobe Illustrator 16.0.0, SVG Export Plug-In . SVG Version: 6.00 Build 0)  -->
<!DOCTYPE svg PUBLIC "-//W3C//DTD SVG 1.1//EN" "http://www.w3.org/Graphics/SVG/1.1/DTD/svg11.dtd">
<svg version="1.1" id="Layer_1" xmlns="http://www.w3.org/2000/svg" xmlns:xlink="http://www.w3.org/1999/xlink" x="0px" y="0px"
	 width="18px" height="18px" viewBox="0 0 18 18" enable-background="new 0 0 18 18" xml:space="preserve">
<path fill="#FFFFFF" d="M17.753,16.098L10.07,0.785C9.775,0.262,9.389,0,9,0S8.225,0.262,7.93,0.785L0.247,16.098
	C-0.343,17.145,0.16,18,1.359,18h15.281C17.84,18,18.343,17.145,17.753,16.098z M9,15.75c-0.621,0-1.125-0.503-1.125-1.125
	C7.875,14.004,8.379,13.5,9,13.5c0.622,0,1.125,0.504,1.125,1.125C10.125,15.247,9.622,15.75,9,15.75z M9.773,12.375H8.227
	l-0.352-4.5C7.875,7.253,8.379,6.75,9,6.75c0.622,0,1.125,0.503,1.125,1.125L9.773,12.375z"/>
<g>
</g>
<g>
</g>
<g>
</g>
<g>
</g>
<g>
</g>
<g>
</g>
<g>
</g>
<g>
</g>
<g>
</g>
<g>
</g>
<g>
</g>
<g>
</g>
<g>
</g>
<g>
</g>
<g>
</g>
</svg>
