<svg xmlns="http://www.w3.org/2000/svg" xmlns:xlink="http://www.w3.org/1999/xlink" width="47" height="1200" viewBox="0 0 47 1200"><svg width="29" height="42" viewBox="-1 -1 29 42" id="arrow_left" y="0"><path fill="#fff" d="M15.3 40L0 19.965 15.3 0H27L11.676 19.996 27 40z"/></svg><svg width="29" height="42" viewBox="-1 -1 29 42" id="arrow_left~hover" y="42"><path fill="#33ADFF" d="M15.398 40L0 19.965 15.398 0h11.776L11.75 19.996 27.175 40z"/></svg><svg width="29" height="42" viewBox="-1 -1 29 42" id="arrow_right" y="84"><path fill="#fff" d="M11.7 0L27 20.035 11.7 40H0l15.324-19.996L0 0z"/></svg><svg width="29" height="42" viewBox="-1 -1 29 42" id="arrow_right~hover" y="126"><path fill="#33ADFF" d="M11.7 0L27 20.035 11.7 40H0l15.324-19.996L0 0z"/></svg><svg width="12" height="12" viewBox="-1 -1 12 12" id="closex" y="168"><path fill="#666" d="M5.986 5l3.95-3.807c.084-.083.084-.223 0-.31l-.82-.82c-.087-.084-.224-.084-.31 0L4.998 4.01 1.198.063C1.112-.02.975-.02.89.063l-.823.82c-.086.087-.086.226 0 .31L4.01 5 .064 8.807c-.086.083-.086.222 0 .306l.822.824c.087.084.224.084.312 0l3.798-3.95 3.81 3.95c.085.084.222.084.308 0l.82-.824c.085-.084.085-.223 0-.306l-3.95-3.81z"/></svg><svg width="12" height="12" viewBox="-1 -1 12 12" id="closex~hover" y="180"><path fill="#33ADFF" d="M5.986 5l3.95-3.807c.084-.083.084-.223 0-.31l-.82-.82c-.087-.084-.224-.084-.31 0L4.998 4.01 1.198.063C1.112-.02.975-.02.89.063l-.823.82c-.086.087-.086.226 0 .31L4.01 5 .064 8.807c-.086.083-.086.222 0 .306l.822.824c.087.084.224.084.312 0l3.798-3.95 3.81 3.95c.085.084.222.084.308 0l.82-.824c.085-.084.085-.223 0-.306l-3.95-3.81z"/></svg><svg width="17" height="17" viewBox="-1 -1 17 17" id="edit" y="192"><path fill="#808080" d="M13.085 4.383L6.42 11.05H3.95V8.58l6.667-6.665 2.468 2.468zm.833-.832l-2.47-2.47.865-.864c.29-.288.76-.288 1.048 0l1.423 1.42c.29.29.29.762 0 1.05l-.865.865zM11.85 7.897v5.13H1.977V3.148h5.43L9.38 1.173h-7.9C.668 1.174 0 1.84 0 2.654v10.863C0 14.333.667 15 1.48 15h10.863c.816 0 1.482-.667 1.482-1.482V6.12L11.85 7.897z"/></svg><svg viewBox="65 65 27 27" enable-background="new 66 66 25 25" width="27" height="27" id="emot-blush" y="209"><circle fill="#FAA21B" cx="78.5" cy="78.5" r="12.5"/><linearGradient id="aha" gradientUnits="userSpaceOnUse" x1="78.484" y1="89.78" x2="78.484" y2="67.218" gradientTransform="matrix(1 0 0 -1 0 157)"><stop offset="0" stop-color="#F6B918"/><stop offset="1" stop-color="#FCCC12"/></linearGradient><path fill="url(#aha)" d="M78.5 79c-4.3 0-8-2.4-9.9-5.9-.9 1.6-1.4 3.4-1.4 5.4 0 6.2 5 11.3 11.3 11.3s11.3-5 11.3-11.3c0-2-.5-3.8-1.4-5.4-1.9 3.5-5.6 5.9-9.9 5.9z"/><linearGradient id="ahb" gradientUnits="userSpaceOnUse" x1="78.5" y1="100.555" x2="78.5" y2="77.993" gradientTransform="matrix(1 0 0 -1 0 157)"><stop offset="0" stop-color="#FFFEF1"/><stop offset=".305" stop-color="#FFFDEF"/><stop offset=".445" stop-color="#FFFAE9"/><stop offset=".551" stop-color="#FFF7DD"/><stop offset=".641" stop-color="#FFF2CF"/><stop offset=".72" stop-color="#FFEDBB"/><stop offset=".791" stop-color="#FFE7A4"/><stop offset=".856" stop-color="#FEE088"/><stop offset=".917" stop-color="#FDD866"/><stop offset=".973" stop-color="#FCD036"/><stop offset="1" stop-color="#FCCC12"/></linearGradient><path fill="url(#ahb)" d="M78.5 79c4.3 0 8-2.4 9.9-5.9-1.9-3.5-5.6-5.9-9.9-5.9s-8 2.4-9.9 5.9c1.9 3.5 5.6 5.9 9.9 5.9z"/><path fill="#F6B918" d="M74.4 81.5c0 1.8-1.4 3.2-3.2 3.2S68 83.3 68 81.5s1.4-3.2 3.2-3.2c1.7-.1 3.2 1.4 3.2 3.2z"/><path fill="#F6B134" d="M74.2 81.5c0 1.7-1.4 3-3 3s-3-1.4-3-3 1.4-3 3-3 3 1.3 3 3z"/><path fill="#F5AA49" d="M73.9 81.5c0 1.5-1.3 2.8-2.8 2.8s-2.8-1.3-2.8-2.8 1.3-2.8 2.8-2.8c1.6 0 2.8 1.2 2.8 2.8z"/><circle fill="#F4A45C" cx="71.1" cy="81.5" r="2.6"/><circle fill="#F49D6A" cx="71.1" cy="81.5" r="2.3"/><circle fill="#F39675" cx="71.1" cy="81.5" r="2.1"/><circle fill="#F38F80" cx="71.1" cy="81.5" r="1.9"/><circle fill="#F2888A" cx="71.1" cy="81.5" r="1.7"/><circle fill="#F28193" cx="71.1" cy="81.5" r="1.4"/><circle fill="#F2799B" cx="71.1" cy="81.5" r="1.2"/><path fill="#F6B918" d="M89.1 81.5c0 1.8-1.4 3.2-3.2 3.2s-3.2-1.4-3.2-3.2 1.4-3.2 3.2-3.2c1.8-.1 3.2 1.4 3.2 3.2z"/><path fill="#F6B134" d="M88.9 81.5c0 1.7-1.4 3-3 3s-3-1.4-3-3 1.4-3 3-3 3 1.3 3 3z"/><path fill="#F5AA49" d="M88.7 81.5c0 1.5-1.3 2.8-2.8 2.8s-2.8-1.3-2.8-2.8 1.3-2.8 2.8-2.8c1.5 0 2.8 1.2 2.8 2.8z"/><circle fill="#F4A45C" cx="85.9" cy="81.5" r="2.6"/><circle fill="#F49D6A" cx="85.9" cy="81.5" r="2.3"/><circle fill="#F39675" cx="85.9" cy="81.5" r="2.1"/><circle fill="#F38F80" cx="85.9" cy="81.5" r="1.9"/><circle fill="#F2888A" cx="85.9" cy="81.5" r="1.7"/><circle fill="#F28193" cx="85.9" cy="81.5" r="1.4"/><circle fill="#F2799B" cx="85.9" cy="81.5" r="1.2"/><path fill="#010101" d="M82 84.8c-2.1 1.1-3.8 1.6-5.3 1.6.8.6 2.8 1 4.8.3s3.1-2.5 2.9-4c-.5.7-1.1 1.4-2.4 2.1z"/><g fill="#010101"><path d="M73.5 75.2c-1.9-.3-3 1.2-3 1.3 0 0-.3.5.1.8.6.5.9 0 .9 0s.5-1 1.8-.7c1.3.2 1.5 1.3 1.5 1.3s.2.5.9.3c.5-.2.3-.7.3-.7 0-.2-.5-2-2.5-2.3zM83.4 75.2c1.9-.3 3 1.2 3 1.3 0 0 .3.5-.1.8-.6.5-.9 0-.9 0s-.5-1-1.8-.7-1.5 1.3-1.5 1.3-.2.5-.9.3c-.5-.2-.3-.7-.3-.7 0-.2.5-2 2.5-2.3z"/></g></svg><svg viewBox="65 65 27 27" enable-background="new 66 66 25 25" width="27" height="27" id="emot-cry" y="236"><circle fill="#FAA21B" cx="78.5" cy="78.5" r="12.5"/><linearGradient id="aia" gradientUnits="userSpaceOnUse" x1="78.5" y1="100.554" x2="78.5" y2="77.992" gradientTransform="matrix(1 0 0 -1 0 157)"><stop offset="0" stop-color="#FFFEF1"/><stop offset=".305" stop-color="#FFFDEF"/><stop offset=".445" stop-color="#FFFAE9"/><stop offset=".551" stop-color="#FFF7DD"/><stop offset=".641" stop-color="#FFF2CF"/><stop offset=".72" stop-color="#FFEDBB"/><stop offset=".791" stop-color="#FFE7A4"/><stop offset=".856" stop-color="#FEE088"/><stop offset=".917" stop-color="#FDD866"/><stop offset=".973" stop-color="#FCD036"/><stop offset="1" stop-color="#FCCC12"/></linearGradient><path fill="url(#aia)" d="M78.5 79c4.3 0 8-2.4 9.9-5.9-1.9-3.5-5.6-5.9-9.9-5.9s-8 2.4-9.9 5.9c1.9 3.5 5.6 5.9 9.9 5.9z"/><linearGradient id="aib" gradientUnits="userSpaceOnUse" x1="78.5" y1="89.78" x2="78.5" y2="67.219" gradientTransform="matrix(1 0 0 -1 0 157)"><stop offset="0" stop-color="#F6B918"/><stop offset="1" stop-color="#FCCC12"/></linearGradient><path fill="url(#aib)" d="M78.5 79c-4.3 0-8-2.4-9.9-5.9-.9 1.6-1.4 3.4-1.4 5.4 0 6.2 5 11.3 11.3 11.3s11.3-5 11.3-11.3c0-2-.5-3.8-1.4-5.4-1.9 3.5-5.6 5.9-9.9 5.9z"/><path fill="#010101" d="M78.4 87.7c3.9 0 6.2-2.2 8.1-2.3-.6-4.4-3.4-6.7-8-6.7s-6.7 2.3-7.4 6.7c.2.7 3.4 2.3 7.3 2.3z"/><path fill="#DA3F26" d="M78.5 84.4c-2.2 0-4.1.7-4.6 1.6 1.3.8 2.9 1.3 4.6 1.3s3.2-.5 4.6-1.3c-.5-.9-2.4-1.6-4.6-1.6z"/><path fill="#010101" d="M73.1 73c-2 .1-2.7 1.8-2.7 1.8s-.2.5.2.8c.7.3.9-.1.9-.1s.3-1 1.6-1.1c1.3 0 1.7.9 1.7 1 0 0 .3.5.9.1.4-.3.2-.8.2-.8 0-.1-.8-1.7-2.8-1.7zM83.3 73c-2 .1-2.7 1.8-2.7 1.8s-.2.5.2.8c.7.3.9-.1.9-.1s.3-1 1.6-1.1c1.3 0 1.7.9 1.7 1 0 0 .3.5.9.1.4-.3.2-.8.2-.8 0-.1-.9-1.7-2.8-1.7z"/><path fill="#FFFEF1" d="M84.2 81.1C82.8 79.9 81 79 78.5 79c-2.4 0-4.3.8-5.7 2.1 1.6.8 3.8 1.2 5.8 1.2 2.1.1 4.2-.3 5.6-1.2z"/><path fill="#549FD7" d="M70.9 76.5l-1.1 1.2s-.7.9-1.4 1.9c-1 1.5-1.3 2.7-1 3.6.1.4.5 1 1.4 1.2.2.1.5.1.7.1.7 0 1.1-.3 1.3-.5.7-.8.5-2.3.3-3.8-.1-.7-.2-1.2-.2-1.9v-1.8z"/><path fill="#A6DFF9" d="M69.4 84.2c-.2 0-.4 0-.6-.1-.8-.2-1.1-.6-1.2-1-.5-1.7 2.1-4.8 2.4-5.2l.6-.7-.1 1.2c0 .6.1 1 .2 1.8.2 1.4.4 2.8-.2 3.5-.3.3-.6.5-1.1.5z"/><path fill="#fff" d="M69.4 79.3s-2 2.9-1.1 3.5c1 .6 1.1-3.5 1.1-3.5z"/></svg><svg viewBox="65 65 27 27" enable-background="new 66 66 25 25" width="27" height="27" id="emot-frown" y="263"><circle fill="#FAA21B" cx="78.5" cy="78.5" r="12.5"/><linearGradient id="aja" gradientUnits="userSpaceOnUse" x1="78.5" y1="100.555" x2="78.5" y2="77.992" gradientTransform="matrix(1 0 0 -1 0 157)"><stop offset="0" stop-color="#FFFEF1"/><stop offset=".305" stop-color="#FFFDEF"/><stop offset=".445" stop-color="#FFFAE9"/><stop offset=".551" stop-color="#FFF7DD"/><stop offset=".641" stop-color="#FFF2CF"/><stop offset=".72" stop-color="#FFEDBB"/><stop offset=".791" stop-color="#FFE7A4"/><stop offset=".856" stop-color="#FEE088"/><stop offset=".917" stop-color="#FDD866"/><stop offset=".973" stop-color="#FCD036"/><stop offset="1" stop-color="#FCCC12"/></linearGradient><path fill="url(#aja)" d="M78.5 79c4.3 0 8-2.4 9.9-5.9-1.9-3.5-5.6-5.9-9.9-5.9s-8 2.4-9.9 5.9c1.9 3.5 5.6 5.9 9.9 5.9z"/><linearGradient id="ajb" gradientUnits="userSpaceOnUse" x1="78.5" y1="89.78" x2="78.5" y2="67.218" gradientTransform="matrix(1 0 0 -1 0 157)"><stop offset="0" stop-color="#F6B918"/><stop offset="1" stop-color="#FCCC12"/></linearGradient><path fill="url(#ajb)" d="M78.5 79c-4.3 0-8-2.4-9.9-5.9-.9 1.6-1.4 3.4-1.4 5.4 0 6.2 5 11.3 11.3 11.3s11.3-5 11.3-11.3c0-2-.5-3.8-1.4-5.4-1.9 3.5-5.6 5.9-9.9 5.9z"/><g fill="#010101"><path d="M76.1 76.1c-.3 1.4-1.1 2.5-1.7 2.4-.6-.1-.9-1.4-.5-2.9.3-1.4 1.1-2.5 1.7-2.4.5.2.8 1.5.5 2.9zM80.9 76.1c.3 1.4 1.1 2.5 1.7 2.4.6-.1.9-1.4.5-2.9-.3-1.4-1.1-2.5-1.7-2.4-.5.2-.8 1.5-.5 2.9z"/></g><path fill="#010101" d="M85.2 86.5c-1.3-1.9-3.8-3.7-6.7-3.7s-5.3 1.7-6.7 3.7c1.5-1.6 3.9-2.3 6.7-2.3s5.2.7 6.7 2.3z"/></svg><svg viewBox="65 65 27 27" enable-background="new 66 66 25 25" width="27" height="27" id="emot-glasses" y="290"><linearGradient id="aka" gradientUnits="userSpaceOnUse" x1="78.5" y1="89.789" x2="78.5" y2="67.241" gradientTransform="matrix(1 0 0 -1 0 157)"><stop offset="0" stop-color="#F6B918"/><stop offset="1" stop-color="#FCCC12"/></linearGradient><path fill="url(#aka)" d="M78.5 79c4.2 0 7.9-2.4 9.8-5.9-1.9-3.5-5.6-5.9-9.8-5.9s-7.9 2.4-9.8 5.9c1.9 3.5 5.6 5.9 9.8 5.9z"/><path fill="#FAA21B" d="M90.8 78.5c0 6.9-5.5 12.5-12.3 12.5-6.8 0-12.3-5.6-12.3-12.5S71.7 66 78.5 66c6.8 0 12.3 5.6 12.3 12.5z"/><linearGradient id="akb" gradientUnits="userSpaceOnUse" x1="78.468" y1="89.781" x2="78.468" y2="67.233" gradientTransform="matrix(1 0 0 -1 0 157)"><stop offset="0" stop-color="#F6B918"/><stop offset="1" stop-color="#FCCC12"/></linearGradient><path fill="url(#akb)" d="M78.5 79c-4.2 0-7.9-2.4-9.8-5.9-.9 1.6-1.4 3.4-1.4 5.4 0 6.2 5 11.3 11.1 11.3s11.1-5.1 11.1-11.3c0-2-.5-3.8-1.4-5.4-1.7 3.5-5.4 5.9-9.6 5.9z"/><path fill="#010101" d="M78.5 81.2c-3.8 0-7.2 0-9-1.4.6 4.4 3.6 8.9 9 8.9 5.2 0 8.3-4.4 9-8.8-1.8 1.3-5.2 1.3-9 1.3z"/><linearGradient id="akc" gradientUnits="userSpaceOnUse" x1="78.476" y1="100.548" x2="78.476" y2="78" gradientTransform="matrix(1 0 0 -1 0 157)"><stop offset="0" stop-color="#FFFEF1"/><stop offset=".305" stop-color="#FFFDEF"/><stop offset=".445" stop-color="#FFFAE9"/><stop offset=".551" stop-color="#FFF7DD"/><stop offset=".641" stop-color="#FFF2CF"/><stop offset=".72" stop-color="#FFEDBB"/><stop offset=".791" stop-color="#FFE7A4"/><stop offset=".856" stop-color="#FEE088"/><stop offset=".917" stop-color="#FDD866"/><stop offset=".973" stop-color="#FCD036"/><stop offset="1" stop-color="#FCCC12"/></linearGradient><path fill="url(#akc)" d="M78.5 79c4.2 0 7.9-2.4 9.8-5.9-1.9-3.5-5.6-5.9-9.8-5.9-4.2 0-7.9 2.4-9.8 5.9 1.9 3.5 5.5 5.9 9.8 5.9z"/><path fill="#FFFEF1" d="M78.5 81.8c-2.7 0-5.8-.2-7.7-.6.4 2.8 4.5 3.7 7.8 3.7s6.7-1 7.4-3.7c-1.8.4-4.8.6-7.5.6zM78.6 85.7c-2.5 0-3.6-.2-5.3-1 .9 1.8 2.2 3.2 5.2 3.2s4.5-1.5 5.4-3.3c-1.7.8-2.9 1.1-5.3 1.1z"/><path fill="#010101" d="M91 75.6l-.5-1.7s-1.4-.9-4.4-1.1c-2.8-.2-6.9 1.2-7.7 1.4-.7-.2-4.9-1.6-7.7-1.4-3 .2-4.4 1.1-4.4 1.1l-.3 1.7s.7-.2 1.6-.5c0 1.1.1 4 1.9 4.5 2.2.6 5.4.5 6.6-.4 1.4-.9 1.6-3 1.7-3.8.4.1.6.1.7.1 0 0 .3 0 .6-.1 0 .8.3 2.9 1.7 3.8 1.2.8 4.4 1 6.6.4 1.8-.5 1.9-3.5 1.9-4.6.9.4 1.7.6 1.7.6z"/><linearGradient id="akd" gradientUnits="userSpaceOnUse" x1="72.089" y1="83.398" x2="73.052" y2="79.538" gradientTransform="matrix(1 0 0 -1 0 157)"><stop offset="0" stop-color="#FFFEF1"/><stop offset=".115" stop-color="#F3F1E6"/><stop offset=".246" stop-color="#DCD9D1"/><stop offset=".386" stop-color="#BCB8B2"/><stop offset=".531" stop-color="#94908C"/><stop offset=".68" stop-color="#686462"/><stop offset=".834" stop-color="#3C3A39"/><stop offset=".987" stop-color="#080807"/><stop offset="1" stop-color="#010101"/></linearGradient><path fill="url(#akd)" d="M68.1 74.7s.1 1.6.4 2.3c.3.6.5 1.6 2.3 1 .7-.2 5-1.1 5.4-1.5s.6-1.4.6-1.4-4.4-.9-5.8-1c-1.3-.1-2.9.6-2.9.6z"/><linearGradient id="ake" gradientUnits="userSpaceOnUse" x1="83.905" y1="82.93" x2="84.659" y2="79.906" gradientTransform="matrix(1 0 0 -1 0 157)"><stop offset="0" stop-color="#FFFEF1"/><stop offset=".115" stop-color="#F3F1E6"/><stop offset=".246" stop-color="#DCD9D1"/><stop offset=".386" stop-color="#BCB8B2"/><stop offset=".531" stop-color="#94908C"/><stop offset=".68" stop-color="#686462"/><stop offset=".834" stop-color="#3C3A39"/><stop offset=".987" stop-color="#080807"/><stop offset="1" stop-color="#010101"/></linearGradient><path fill="url(#ake)" d="M79.6 75.1s.4 1.6.7 2c.3.4.7.7 1.1.7.4 0 5.6-1.6 6.1-1.7.5-.1.9-.6 1-1s.1-.6.1-.6-1.9-.8-2.9-.7c-1 .2-6.1 1.3-6.1 1.3z"/><path fill="#010101" d="M79.3 69.8l.2 1.7s2-.4 3.3-.2c1.7.2 2.1.4 3.5.9 0 0-.9-2.5-4.1-2.7-1.8 0-2.9.3-2.9.3zM76.4 71.6l-.6 1.3s-1-.7-2.7-.8c-1.1-.1-3.2.1-3.2.1s1.3-1.5 3.4-1.4 3.1.8 3.1.8z"/></svg><svg viewBox="65 65 27 27" enable-background="new 66 66 25 25" width="27" height="27" id="emot-happy" y="317"><circle fill="#FAA21B" cx="78.5" cy="78.5" r="12.5"/><linearGradient id="ala" gradientUnits="userSpaceOnUse" x1="78.5" y1="89.781" x2="78.5" y2="67.219" gradientTransform="matrix(1 0 0 -1 0 157)"><stop offset="0" stop-color="#F6B918"/><stop offset="1" stop-color="#FCCC12"/></linearGradient><path fill="url(#ala)" d="M78.5 79c-4.3 0-8-2.4-9.9-5.9-.9 1.6-1.4 3.4-1.4 5.4 0 6.2 5 11.3 11.3 11.3s11.3-5 11.3-11.3c0-2-.5-3.8-1.4-5.4-1.9 3.5-5.6 5.9-9.9 5.9z"/><linearGradient id="alb" gradientUnits="userSpaceOnUse" x1="78.5" y1="100.554" x2="78.5" y2="77.992" gradientTransform="matrix(1 0 0 -1 0 157)"><stop offset="0" stop-color="#FFFEF1"/><stop offset=".305" stop-color="#FFFDEF"/><stop offset=".445" stop-color="#FFFAE9"/><stop offset=".551" stop-color="#FFF7DD"/><stop offset=".641" stop-color="#FFF2CF"/><stop offset=".72" stop-color="#FFEDBB"/><stop offset=".791" stop-color="#FFE7A4"/><stop offset=".856" stop-color="#FEE088"/><stop offset=".917" stop-color="#FDD866"/><stop offset=".973" stop-color="#FCD036"/><stop offset="1" stop-color="#FCCC12"/></linearGradient><path fill="url(#alb)" d="M78.5 79c4.3 0 8-2.4 9.9-5.9-1.9-3.5-5.6-5.9-9.9-5.9s-8 2.4-9.9 5.9c1.9 3.5 5.6 5.9 9.9 5.9z"/><path fill="#010101" d="M78.5 84.8c-3.6 0-6.7-1.4-8.7-3.6 1.3 3.4 4.7 5.8 8.7 5.8s7.4-2.4 8.7-5.8c-2 2.2-5.1 3.6-8.7 3.6z"/><g fill="#010101"><ellipse cx="74.3" cy="77.2" rx="1.1" ry="2.7"/><ellipse cx="82.7" cy="77.2" rx="1.1" ry="2.7"/></g></svg><svg viewBox="65 65 27 27" enable-background="new 66 66 25 25" width="27" height="27" id="emot-laugh" y="344"><circle fill="#FAA21B" cx="78.5" cy="78.5" r="12.5"/><linearGradient id="ama" gradientUnits="userSpaceOnUse" x1="78.5" y1="100.554" x2="78.5" y2="77.992" gradientTransform="matrix(1 0 0 -1 0 157)"><stop offset="0" stop-color="#FFFEF1"/><stop offset=".305" stop-color="#FFFDEF"/><stop offset=".445" stop-color="#FFFAE9"/><stop offset=".551" stop-color="#FFF7DD"/><stop offset=".641" stop-color="#FFF2CF"/><stop offset=".72" stop-color="#FFEDBB"/><stop offset=".791" stop-color="#FFE7A4"/><stop offset=".856" stop-color="#FEE088"/><stop offset=".917" stop-color="#FDD866"/><stop offset=".973" stop-color="#FCD036"/><stop offset="1" stop-color="#FCCC12"/></linearGradient><path fill="url(#ama)" d="M78.5 79c4.3 0 8-2.4 9.9-5.9-1.9-3.5-5.6-5.9-9.9-5.9s-8 2.4-9.9 5.9c1.9 3.5 5.6 5.9 9.9 5.9z"/><linearGradient id="amb" gradientUnits="userSpaceOnUse" x1="78.484" y1="89.781" x2="78.484" y2="67.218" gradientTransform="matrix(1 0 0 -1 0 157)"><stop offset="0" stop-color="#F6B918"/><stop offset="1" stop-color="#FCCC12"/></linearGradient><path fill="url(#amb)" d="M78.5 79c-4.3 0-8-2.4-9.9-5.9-.9 1.6-1.4 3.4-1.4 5.4 0 6.2 5 11.3 11.3 11.3s11.3-5 11.3-11.3c0-2-.5-3.8-1.4-5.4-1.9 3.5-5.6 5.9-9.9 5.9z"/><path fill="#010101" d="M78.5 81.2c-3.9 0-7.3 0-9.2-1.4.6 4.4 4.5 8.1 9.1 8.1s8.5-3.7 9.1-8.1c-1.7 1.5-5.1 1.4-9 1.4z"/><path fill="#FFFEF1" d="M78.5 81.7c-2.8 0-5.1 0-7-.4 1 2.1 3.6 3.3 7 3.3s6-1.2 7-3.3c-1.9.4-4.2.4-7 .4z"/><path fill="#DA3F26" d="M78.5 85c-2.2 0-4.1.7-4.6 1.6 1.4.8 2.9 1.3 4.6 1.3s3.2-.5 4.6-1.3c-.5-.9-2.4-1.6-4.6-1.6z"/><g fill="#010101"><path d="M73.6 75.2c-1.9-.3-3 1.2-3 1.3 0 0-.3.5.1.8.6.5.9 0 .9 0s.5-1 1.8-.7 1.5 1.3 1.5 1.3.2.5.9.3c.5-.2.3-.7.3-.7-.1-.2-.6-2-2.5-2.3zM83.4 75.2c1.9-.3 3 1.2 3 1.3 0 0 .3.5-.1.8-.6.5-.9 0-.9 0s-.5-1-1.8-.7c-1.3.2-1.5 1.3-1.5 1.3s-.2.5-.9.3c-.5-.2-.3-.7-.3-.7.1-.2.6-2 2.5-2.3z"/></g></svg><svg viewBox="65 65 27 27" enable-background="new 66 66 25 25" width="27" height="27" id="emot-love" y="371"><circle fill="#FAA21B" cx="78.5" cy="78.5" r="12.5"/><linearGradient id="ana" gradientUnits="userSpaceOnUse" x1="78.5" y1="89.78" x2="78.5" y2="67.219" gradientTransform="matrix(1 0 0 -1 0 157)"><stop offset="0" stop-color="#F6B918"/><stop offset="1" stop-color="#FCCC12"/></linearGradient><path fill="url(#ana)" d="M78.5 79c-4.3 0-8-2.4-9.9-5.9-.9 1.6-1.4 3.4-1.4 5.4 0 6.2 5 11.3 11.3 11.3s11.3-5 11.3-11.3c0-2-.5-3.8-1.4-5.4-1.9 3.5-5.6 5.9-9.9 5.9z"/><linearGradient id="anb" gradientUnits="userSpaceOnUse" x1="78.5" y1="100.554" x2="78.5" y2="77.992" gradientTransform="matrix(1 0 0 -1 0 157)"><stop offset="0" stop-color="#FFFEF1"/><stop offset=".305" stop-color="#FFFDEF"/><stop offset=".445" stop-color="#FFFAE9"/><stop offset=".551" stop-color="#FFF7DD"/><stop offset=".641" stop-color="#FFF2CF"/><stop offset=".72" stop-color="#FFEDBB"/><stop offset=".791" stop-color="#FFE7A4"/><stop offset=".856" stop-color="#FEE088"/><stop offset=".917" stop-color="#FDD866"/><stop offset=".973" stop-color="#FCD036"/><stop offset="1" stop-color="#FCCC12"/></linearGradient><path fill="url(#anb)" d="M78.5 79c4.3 0 8-2.4 9.9-5.9-1.9-3.5-5.6-5.9-9.9-5.9s-8 2.4-9.9 5.9c1.9 3.5 5.6 5.9 9.9 5.9z"/><path fill="#010101" d="M78.5 85.6c-3.2 0-5.9-1.6-7.5-4.2 1.1 3.5 4 6 7.5 6s6.4-2.5 7.5-6c-1.6 2.6-4.3 4.2-7.5 4.2z"/><path fill="#DA1F26" d="M73.7 80.6c.5 0 1-.9 1.8-1.6.8-.7 2.3-1.4 2.3-3 0-2.4-3.1-3.3-4.1-.9-1-2.4-4.1-1.6-4.1.9 0 1.5 1.5 2.2 2.3 3 .8.7 1.3 1.6 1.8 1.6zM83.3 80.6c.5 0 1-.9 1.8-1.6.8-.7 2.3-1.4 2.3-3 0-2.4-3.1-3.3-4.1-.9-1-2.4-4.1-1.6-4.1.9 0 1.5 1.5 2.2 2.3 3 .8.7 1.3 1.6 1.8 1.6z"/></svg><svg viewBox="65 65 27 27" enable-background="new 66 66 25 25" width="27" height="27" id="emot-wink" y="398"><circle fill="#FAA21B" cx="78.5" cy="78.5" r="12.5"/><linearGradient id="aoa" gradientUnits="userSpaceOnUse" x1="78.484" y1="89.781" x2="78.484" y2="67.219" gradientTransform="matrix(1 0 0 -1 0 157)"><stop offset="0" stop-color="#F6B918"/><stop offset="1" stop-color="#FCCC12"/></linearGradient><path fill="url(#aoa)" d="M78.5 79c-4.3 0-8-2.4-9.9-5.9-.9 1.6-1.4 3.4-1.4 5.4 0 6.2 5 11.3 11.3 11.3s11.3-5 11.3-11.3c0-2-.5-3.8-1.4-5.4-1.9 3.5-5.6 5.9-9.9 5.9z"/><linearGradient id="aob" gradientUnits="userSpaceOnUse" x1="78.5" y1="100.554" x2="78.5" y2="77.992" gradientTransform="matrix(1 0 0 -1 0 157)"><stop offset="0" stop-color="#FFFEF1"/><stop offset=".305" stop-color="#FFFDEF"/><stop offset=".445" stop-color="#FFFAE9"/><stop offset=".551" stop-color="#FFF7DD"/><stop offset=".641" stop-color="#FFF2CF"/><stop offset=".72" stop-color="#FFEDBB"/><stop offset=".791" stop-color="#FFE7A4"/><stop offset=".856" stop-color="#FEE088"/><stop offset=".917" stop-color="#FDD866"/><stop offset=".973" stop-color="#FCD036"/><stop offset="1" stop-color="#FCCC12"/></linearGradient><path fill="url(#aob)" d="M78.5 79c4.3 0 8-2.4 9.9-5.9-1.9-3.5-5.6-5.9-9.9-5.9s-8 2.4-9.9 5.9c1.9 3.5 5.6 5.9 9.9 5.9z"/><path fill="#010101" d="M78.5 85.3c-3.6 0-6.7-1.4-8.6-3.6 1.3 3.4 4.7 5.9 8.6 5.9s7.4-2.4 8.6-5.9c-1.9 2.2-5 3.6-8.6 3.6z"/><ellipse fill="#010101" cx="82.6" cy="77.2" rx="1.1" ry="2.7"/><path fill="#010101" d="M74.3 76.6c1.9.5 2.2 2.3 2.2 2.4 0 0 .1.5-.4.7-.7.2-.9-.4-.9-.4s-.1-1.1-1.3-1.4c-1.2-.3-1.8.6-1.8.6s-.4.4-.9-.1c-.4-.4 0-.8 0-.8-.1-.1 1.1-1.5 3.1-1zM79.4 70.2l.2 1.7s2-.4 3.3-.2c1.7.2 2.1.4 3.5.9 0 0-.9-2.5-4.1-2.7-1.8-.1-2.9.3-2.9.3zM76.7 75l-1 1.1s-.8-1-2.4-1.5c-1.1-.4-3.2-.8-3.2-.8s1.7-1.1 3.7-.4c2.2.6 2.9 1.6 2.9 1.6z"/></svg><svg width="14.324" height="10.088" viewBox="-1 -1 14.324 10.088" id="eye" y="425"><path fill="#868686" d="M6.162 1.925c-2.52 0-4.757 1.21-6.162 3.08C1.405 6.88 3.643 8.09 6.162 8.09s4.756-1.21 6.162-3.082c-1.406-1.87-3.642-3.08-6.162-3.08zm-.77 1.54c.426 0 .77.346.77.772 0 .425-.344.77-.77.77s-.77-.344-.77-.77c0-.426.344-.77.77-.77zm3.92 3.098c-.48.244-.985.43-1.503.558-.537.132-1.09.196-1.647.196S5.05 7.252 4.516 7.12c-.52-.126-1.024-.313-1.502-.558-.758-.386-1.448-.917-2.018-1.556.57-.635 1.26-1.168 2.018-1.556.388-.198.797-.36 1.216-.482-.24.364-.38.8-.38 1.27 0 1.274 1.034 2.31 2.312 2.31 1.276 0 2.31-1.035 2.31-2.31 0-.47-.14-.905-.378-1.27.42.122.827.284 1.217.482.76.387 1.448.92 2.02 1.556-.573.64-1.262 1.17-2.02 1.557zm1.05-5.555C9.05.338 7.64 0 6.16 0s-2.89.34-4.2 1.008C1.257 1.368.595 1.824 0 2.356V3.43c.666-.705 1.452-1.297 2.313-1.737C3.513 1.08 4.807.77 6.163.77c1.353 0 2.65.31 3.848.923.86.44 1.648 1.032 2.314 1.737V2.356c-.595-.532-1.256-.988-1.963-1.348z"/></svg><svg width="14.805" height="11.799" viewBox="-1 -1 14.805 11.799" id="eye-closed" y="436"><g fill="#868686"><path d="M10.267 0L8.963 1.407c-.816-.225-1.66-.34-2.527-.34-1.528 0-3.02.35-4.373 1.042C1.333 2.48 0 2.952 0 3.502v1.11c0-.728 1.535-1.34 2.424-1.795C3.664 2.184 5 1.863 6.4 1.863c.65 0 1.303.077 1.922.215l-.95 1.035c-.31-.036-.62-.056-.94-.056-2.605 0-4.916 1.25-6.368 3.185.654.87 1.482 1.598 2.432 2.14l-.663.714.76.703L11.025.702 10.266 0zM5.64 4.65c.095 0 .186.018.27.05l-.995 1.07c-.045-.096-.072-.207-.072-.323 0-.44.356-.797.796-.797zM1.095 6.242c.59-.658 1.3-1.207 2.085-1.608.403-.205.825-.373 1.26-.5-.25.378-.393.828-.393 1.313 0 .36.088.703.232 1.012L3.053 7.78c-.732-.395-1.402-.915-1.958-1.538zM8.824 5.447c0-.344-.076-.666-.205-.96L5.647 7.69c.248.087.51.144.787.144 1.32 0 2.39-1.068 2.39-2.387zM10.19 2.736c.057.027-.26.052-.206.08.89.456 2.016 1.068 2.016 1.797v-1.11c0-.542-.877-1.006-1.594-1.376l-.216.61zM9.41 3.635l-.59.634c.298.104.59.22.87.364.783.4 1.496.95 2.085 1.608-.59.658-1.3 1.21-2.086 1.61-.495.25-1.017.445-1.554.576-.553.135-1.125.203-1.7.203-.508 0-1.01-.062-1.503-.167l-.624.674c.677.188 1.39.29 2.126.29 2.604 0 4.916-1.25 6.37-3.185-.868-1.153-2.04-2.06-3.396-2.607z"/></g></svg><svg width="26.217" height="23.928" viewBox="-1 -1 26.217 23.928" id="info-favs" y="448"><path stroke="#ccc" stroke-width="2" stroke-miterlimit="10" d="M21.505 2.785c-2.297-2.3-6.023-2.3-8.322 0-.424.422-.762.89-1.03 1.39-.27-.5-.612-.968-1.034-1.39-2.296-2.3-6.022-2.3-8.32 0C.5 5.08.5 8.81 2.8 11.105l9.353 9.337 9.354-9.337c2.295-2.295 2.295-6.024-.002-8.32z" fill="none"/></svg><svg width="21" height="19" viewBox="-1 -1 21 19" id="info-home" y="472"><path fill="#fff" d="M19 9.715L15.437 6.07V2.43h-2.372V3.64L9.5 0 0 9.715h2.376V17h5.936v-4.857h2.375V17h5.937V9.715H19z"/></svg><svg width="29.06" height="23.765" viewBox="-1 -1 29.06 23.765" id="info-numbercomments" y="491"><path stroke="#ccc" stroke-width="2" stroke-miterlimit="10" d="M1.018 2.62V13.8c0 .877.702 1.597 1.562 1.597h15.235l3.516 3.828v-3.828h3.125c.86 0 1.563-.72 1.563-1.598V2.62c0-.878-.702-1.6-1.563-1.6H2.58c-.86 0-1.562.722-1.562 1.6z" fill="none"/><path fill="#ccc" d="M5.577 5.17h15.38v1.37H5.576zM5.577 8.73h8.865v1.37H5.577z"/></svg><svg width="32" height="23" viewBox="-1 -1 32 23" id="info-photo" y="515"><path fill="#fff" d="M9.022 11.374c0 3.082 2.678 5.58 5.977 5.58 3.3 0 5.975-2.498 5.975-5.58 0-3.08-2.675-5.578-5.976-5.578-3.3 0-5.978 2.497-5.978 5.578zm19.1-7.874h-6.56c-.47-1.75-.938-3.5-2.814-3.5h-7.5C9.375 0 8.905 1.75 8.44 3.5H1.874C.845 3.5 0 4.287 0 5.25v14C0 20.213.844 21 1.875 21h26.248c1.03 0 1.877-.786 1.877-1.75v-14c0-.963-.846-1.75-1.877-1.75zM15 19.25c-4.66 0-8.438-3.526-8.438-7.876C6.562 7.026 10.34 3.5 15 3.5c4.66 0 8.437 3.526 8.437 7.874 0 4.35-3.777 7.875-8.438 7.875zM28.122 7h-3.75v-1.75h3.75v1.75z"/></svg><svg width="24.152" height="22.769" viewBox="-1 -1 24.152 22.769" id="info-readyintime" y="538"><path fill="#ccc" d="M11.076 0C4.96 0 0 4.96 0 11.076c0 3.312 1.45 6.28 3.75 8.308.6.53 1.256.996 1.96 1.385h10.731c.702-.39 1.36-.856 1.962-1.386 2.3-2.03 3.75-4.996 3.75-8.308C22.152 4.96 17.192 0 11.076 0zm6.854 17.93c-.564.565-1.186 1.05-1.857 1.454H6.08c-.672-.404-1.295-.89-1.857-1.45-.89-.894-1.59-1.93-2.08-3.085-.502-1.194-.76-2.462-.76-3.774h2.77V9.693h-2.67c.117-.822.335-1.62.66-2.388.4-.94.94-1.805 1.607-2.574l1.967 1.967c.29-.36.62-.688.978-.98L4.727 3.752c.77-.67 1.634-1.21 2.578-1.604.248-.106.5-.2.752-.282l.677 2.696c.43-.153.88-.27 1.344-.335l-.674-2.7c.547-.094 1.106-.143 1.672-.143.564 0 1.125.05 1.674.145l-.676 2.696c.465.066.914.182 1.344.335l.674-2.695c.256.083.508.178.756.282.94.398 1.805.937 2.576 1.604l-1.967 1.966c.36.293.684.62.98.98l1.965-1.966c.668.77 1.207 1.634 1.605 2.575.324.768.545 1.564.662 2.388h-2.673v1.382h2.768c0 1.312-.254 2.58-.758 3.773-.49 1.155-1.187 2.193-2.077 3.083zM10.482 6.925L9.692 18h2.77L11.67 6.924h-1.188z"/></svg><svg width="23" height="23" viewBox="-1 -1 23 23" id="info-search" y="561"><path fill="#808080" d="M20.35 17.87l-4.976-4.23c-.516-.464-1.063-.676-1.51-.655 1.176-1.375 1.886-3.16 1.886-5.11C15.75 3.525 12.224 0 7.875 0S0 3.526 0 7.875c0 4.348 3.526 7.875 7.875 7.875 1.95 0 3.735-.71 5.11-1.884-.02.444.19.993.655 1.51l4.23 4.974c.725.804 1.906.873 2.63.15.723-.723.653-1.906-.15-2.63zM7.874 13.124c-2.898 0-5.25-2.35-5.25-5.25s2.352-5.25 5.25-5.25 5.25 2.35 5.25 5.25-2.352 5.25-5.25 5.25z"/></svg><svg width="23" height="23" viewBox="-1 -1 23 23" id="info-search~hover" y="584"><path fill="#fff" d="M20.35 17.87l-4.976-4.23c-.516-.464-1.063-.676-1.51-.655 1.176-1.375 1.886-3.16 1.886-5.11C15.75 3.525 12.224 0 7.875 0S0 3.526 0 7.875c0 4.348 3.526 7.875 7.875 7.875 1.95 0 3.735-.71 5.11-1.884-.02.444.19.993.655 1.51l4.23 4.974c.725.804 1.906.873 2.63.15.723-.723.653-1.906-.15-2.63zM7.874 13.124c-2.898 0-5.25-2.35-5.25-5.25s2.352-5.25 5.25-5.25 5.25 2.35 5.25 5.25-2.352 5.25-5.25 5.25z"/></svg><svg width="18" height="19" viewBox="-1 -1 18 19" id="info-thumbsup" y="607"><path fill="#F1F6F7" d="M13.56 9.6c1.74 0 2.34-2.204.597-2.204H8.28c.21-.836.605-3.513.605-3.513-.088-1.3-.968-2.937-.968-2.937-1.04-.433-1.507.168-1.507.168s.056 2.063.056 2.54c0 .48-2.383 4.297-2.964 4.784-.584.493-2.03 1.33-2.03 1.33-1.727 4.14.4 5.81.4 5.81h1.113c.415 0 .93.64 1.488.64h7.288c1.745 0 2.345-2.21.6-2.21 1.745 0 2.34-2.2.6-2.2 1.738-.003 2.34-2.21.6-2.21z"/><g fill="#fff"><path d="M4.472 15.466c-.084-.003-.32-.154-.448-.236-.294-.188-.627-.402-1.04-.402h-.802c-.364-.442-1.17-1.822-.11-4.543.45-.267 1.42-.858 1.913-1.274.533-.445 3.23-4.49 3.23-5.354 0-.34-.027-1.475-.043-2.114.01-.002.024-.003.037-.003.054 0 .113.006.177.02.26.54.67 1.526.743 2.297-.068.458-.4 2.645-.58 3.355l-.236.934h6.842c.193 0 .282.043.298.058.004.017 0 .13-.1.27-.077.113-.31.375-.796.375v1.5c.192 0 .28.042.295.057.005.018 0 .13-.098.272-.078.112-.312.375-.797.375v1.5c.193 0 .28.043.296.058.005.018 0 .13-.097.27-.078.112-.313.375-.8.375v1.5c.194 0 .282.044.298.06.005.018.002.13-.096.27-.078.114-.313.38-.802.38H4.472zM7.05 5.876c-.087.497-.168.924-.226 1.15l-.473 1.87h7.22l.026 2.204c-.09-.014-.33-.14-.443-.423-.088-.22-.04-.392-.013-.426-.002.003-.043.054-.18.054l.037 3.002c-.093-.014-.332-.14-.444-.427-.088-.222-.038-.393-.01-.427-.003.002-.045.053-.186.053l.04 3.002c-.092-.014-.33-.14-.442-.422-.087-.22-.04-.39-.012-.425-.002.003-.044.055-.184.055H4.616c-.057-.033-.132-.08-.188-.117-.344-.22-.814-.52-1.446-.52h-.398c-.258-.49-.538-1.52.096-3.285.516-.313 1.328-.822 1.782-1.206.336-.28 1.664-2.1 2.585-3.71M7.21.788c-.548 0-.8.324-.8.324s.055 2.063.055 2.54c0 .48-2.383 4.297-2.964 4.784-.583.493-2.028 1.33-2.028 1.33-1.728 4.14.398 5.81.398 5.81h1.114c.415 0 .93.64 1.488.64h7.288c1.744 0 2.344-2.21.598-2.21 1.746 0 2.34-2.2.602-2.2 1.74 0 2.34-2.207.6-2.207 1.74 0 2.34-2.202.598-2.202H8.28c.21-.838.605-3.515.605-3.515-.088-1.3-.968-2.937-.968-2.937C7.642.832 7.407.79 7.21.79z"/></g><path fill="#808080" d="M7.202.79c.2 0 .435.043.716.157 0 0 .88 1.637.967 2.937 0 0-.395 2.677-.606 3.513h5.877C15.9 7.397 15.3 9.6 13.56 9.6c1.74 0 1.14 2.206-.6 2.206 1.738 0 1.144 2.202-.603 2.202 1.746 0 1.146 2.21-.598 2.21H4.47c-.558 0-1.072-.64-1.487-.64H1.87s-2.126-1.672-.4-5.81c0 0 1.446-.838 2.03-1.33.582-.488 2.965-4.304 2.965-4.784 0-.477-.056-2.54-.056-2.54S6.66.79 7.2.79m0-.79C6.516 0 6.007.34 5.78.624c-.113.15-.17.322-.17.51 0 .017.05 1.863.058 2.44-.244.693-2.23 3.864-2.684 4.27-.433.36-1.528 1.02-1.91 1.243-.15.086-.27.22-.337.377-1.932 4.627.533 6.648.636 6.73.144.11.315.17.498.17H2.93c.063.03.176.108.258.16.317.2.748.476 1.286.476h7.288c1.462 0 2.443-1.122 2.443-2.165 0-.236-.05-.46-.143-.666.47-.42.74-.986.74-1.536 0-.238-.05-.463-.143-.66.47-.428.74-.992.74-1.544 0-.238-.05-.462-.14-.666.47-.417.743-.986.743-1.537 0-.46-.186-.873-.518-1.17-.232-.203-.648-.447-1.326-.447h-4.91c.2-1.105.416-2.535.426-2.614.01-.058.01-.112.01-.166C9.576 2.377 8.663.653 8.62.58 8.533.42 8.394.293 8.227.222 7.873.077 7.533 0 7.202 0z"/></svg><svg width="18" height="19" viewBox="-1 -1 18 19" id="info-thumbsup~disabled" y="626"><path fill="#F1F6F7" d="M13.56 9.6c1.74 0 2.34-2.204.597-2.204H8.28c.21-.836.605-3.513.605-3.513-.088-1.3-.968-2.937-.968-2.937-1.04-.433-1.507.168-1.507.168s.056 2.063.056 2.54c0 .48-2.383 4.297-2.964 4.784-.584.493-2.03 1.33-2.03 1.33-1.727 4.14.4 5.81.4 5.81h1.113c.415 0 .93.64 1.488.64h7.288c1.745 0 2.345-2.21.6-2.21 1.745 0 2.34-2.2.6-2.2 1.738-.003 2.34-2.21.6-2.21z"/><path fill="#D9D9D9" d="M4.472 15.466c-.084-.003-.32-.154-.448-.236-.294-.188-.627-.402-1.04-.402h-.802c-.364-.442-1.17-1.822-.11-4.543.45-.267 1.42-.858 1.913-1.274.533-.445 3.23-4.49 3.23-5.354 0-.34-.027-1.475-.043-2.114.01-.002.024-.003.037-.003.054 0 .113.006.177.02.26.54.67 1.526.743 2.297-.068.458-.4 2.645-.58 3.355l-.236.934h6.842c.193 0 .282.043.298.058.004.017 0 .13-.1.27-.077.113-.31.375-.796.375v1.5c.192 0 .28.042.295.057.005.018 0 .13-.098.272-.078.112-.312.375-.797.375v1.5c.193 0 .28.043.296.058.005.018 0 .13-.097.27-.078.112-.313.375-.8.375v1.5c.194 0 .282.044.298.06.005.018.002.13-.096.27-.078.114-.313.38-.802.38H4.472zM7.05 5.876c-.087.497-.168.924-.226 1.15l-.473 1.87h7.22l.026 2.204c-.09-.014-.33-.14-.443-.423-.088-.22-.04-.392-.013-.426-.002.003-.043.054-.18.054l.037 3.002c-.093-.014-.332-.14-.444-.427-.088-.222-.038-.393-.01-.427-.003.002-.045.053-.186.053l.04 3.002c-.092-.014-.33-.14-.442-.422-.087-.22-.04-.39-.012-.425-.002.003-.044.055-.184.055H4.616c-.057-.033-.132-.08-.188-.117-.344-.22-.814-.52-1.446-.52h-.398c-.258-.49-.538-1.52.096-3.285.516-.313 1.328-.822 1.782-1.206.336-.28 1.664-2.1 2.585-3.71M7.21.788c-.548 0-.8.324-.8.324s.055 2.063.055 2.54c0 .48-2.383 4.297-2.964 4.784-.583.493-2.028 1.33-2.028 1.33-1.728 4.14.398 5.81.398 5.81h1.114c.415 0 .93.64 1.488.64h7.288c1.744 0 2.344-2.21.598-2.21 1.746 0 2.34-2.2.602-2.2 1.74 0 2.34-2.207.6-2.207 1.74 0 2.34-2.202.598-2.202H8.28c.21-.838.605-3.515.605-3.515-.088-1.3-.968-2.937-.968-2.937C7.642.832 7.407.79 7.21.79z"/><path fill="#BFBFBF" d="M7.202.79c.2 0 .435.043.716.157 0 0 .88 1.637.967 2.937 0 0-.395 2.677-.606 3.513h5.877C15.9 7.397 15.3 9.6 13.56 9.6c1.74 0 1.14 2.206-.6 2.206 1.738 0 1.144 2.202-.603 2.202 1.746 0 1.146 2.21-.598 2.21H4.47c-.558 0-1.072-.64-1.487-.64H1.87s-2.126-1.672-.4-5.81c0 0 1.446-.838 2.03-1.33.582-.488 2.965-4.304 2.965-4.784 0-.477-.056-2.54-.056-2.54S6.66.79 7.2.79m0-.79C6.516 0 6.007.34 5.78.624c-.113.15-.17.322-.17.51 0 .017.05 1.863.058 2.44-.244.693-2.23 3.864-2.684 4.27-.433.36-1.528 1.02-1.91 1.243-.15.086-.27.22-.337.377-1.932 4.627.533 6.648.636 6.73.144.11.315.17.498.17H2.93c.063.03.176.108.258.16.317.2.748.476 1.286.476h7.288c1.462 0 2.443-1.122 2.443-2.165 0-.236-.05-.46-.143-.666.47-.42.74-.986.74-1.536 0-.238-.05-.463-.143-.66.47-.428.74-.992.74-1.544 0-.238-.05-.462-.14-.666.47-.417.743-.986.743-1.537 0-.46-.186-.873-.518-1.17-.232-.203-.648-.447-1.326-.447h-4.91c.2-1.105.416-2.535.426-2.614.01-.058.01-.112.01-.166C9.576 2.377 8.663.653 8.62.58 8.533.42 8.394.293 8.227.222 7.873.077 7.533 0 7.202 0z"/></svg><svg width="18" height="19" viewBox="-1 -1 18 19" id="info-thumbsup~hover" y="645"><path fill="#F1F6F7" d="M13.56 9.6c1.74 0 2.34-2.204.597-2.204H8.28c.21-.836.605-3.513.605-3.513-.088-1.3-.968-2.937-.968-2.937-1.04-.433-1.507.168-1.507.168s.056 2.063.056 2.54c0 .48-2.383 4.297-2.964 4.784-.584.493-2.03 1.33-2.03 1.33-1.727 4.14.4 5.81.4 5.81h1.113c.415 0 .93.64 1.488.64h7.288c1.745 0 2.345-2.21.6-2.21 1.745 0 2.34-2.2.6-2.2 1.738-.003 2.34-2.21.6-2.21z"/><path fill="#33ADFF" d="M13.56 9.6c1.74 0 2.34-2.204.597-2.204H8.28c.21-.836.605-3.513.605-3.513-.088-1.3-.968-2.937-.968-2.937-1.04-.433-1.507.168-1.507.168s.056 2.063.056 2.54c0 .48-2.383 4.297-2.964 4.784-.584.493-2.03 1.33-2.03 1.33-1.727 4.14.4 5.81.4 5.81h1.113c.415 0 .93.64 1.488.64h7.288c1.745 0 2.345-2.21.6-2.21 1.745 0 2.34-2.2.6-2.2 1.738-.003 2.34-2.21.6-2.21z"/><path fill="#fff" d="M7.202.79c.2 0 .435.043.716.157 0 0 .88 1.637.967 2.937 0 0-.395 2.677-.606 3.513h5.877C15.9 7.397 15.3 9.6 13.56 9.6c1.74 0 1.14 2.206-.6 2.206 1.738 0 1.144 2.202-.603 2.202 1.746 0 1.146 2.21-.598 2.21H4.47c-.558 0-1.072-.64-1.487-.64H1.87s-2.126-1.672-.4-5.81c0 0 1.446-.838 2.03-1.33.582-.488 2.965-4.304 2.965-4.784 0-.477-.056-2.54-.056-2.54S6.66.79 7.2.79m0-.79C6.516 0 6.007.34 5.78.624c-.113.15-.17.322-.17.51 0 .017.05 1.863.058 2.44-.244.693-2.23 3.864-2.684 4.27-.433.36-1.528 1.02-1.91 1.243-.15.086-.27.22-.337.377-1.932 4.627.533 6.648.636 6.73.144.11.315.17.498.17H2.93c.063.03.176.108.258.16.317.2.748.476 1.286.476h7.288c1.462 0 2.443-1.122 2.443-2.165 0-.236-.05-.46-.143-.666.47-.42.74-.986.74-1.536 0-.238-.05-.463-.143-.66.47-.428.74-.992.74-1.544 0-.238-.05-.462-.14-.666.47-.417.743-.986.743-1.537 0-.46-.186-.873-.518-1.17-.232-.203-.648-.447-1.326-.447h-4.91c.2-1.105.416-2.535.426-2.614.01-.058.01-.112.01-.166C9.576 2.377 8.663.653 8.62.58 8.533.42 8.394.293 8.227.222 7.873.077 7.533 0 7.202 0z"/></svg><svg width="17" height="12" viewBox="-1 -1 17 12" id="info-video" y="664"><path fill="#fff" d="M9.375 0h-7.5C.845 0 0 .898 0 2v6c0 1.1.844 2 1.875 2h7.5c1.03 0 1.875-.9 1.875-2V2c0-1.102-.846-2-1.875-2zm2.812 4v1.998L15 9V.998L12.187 4z"/></svg><svg width="25" height="22" viewBox="-1 -1 25 22" id="notif-checkbox" y="676"><path fill="#fff" d="M22.082 0c-9.785 7.407-8.61 6.845-14.72 13.293L2.17 8.625 0 10.835c2.133 2.007 7.08 7.305 8.752 9.29C13.46 12.26 18.354 6.395 23 1.03L22.082 0z"/></svg><svg width="20" height="20" viewBox="-1 -1 20 20" id="notif-warning" y="698"><path fill="#fff" d="M17.753 16.098L10.07.785C9.775.262 9.39 0 9 0s-.775.262-1.07.785L.247 16.098C-.343 17.145.16 18 1.36 18h15.28c1.2 0 1.703-.855 1.113-1.902zM9 15.75c-.62 0-1.125-.503-1.125-1.125 0-.62.504-1.125 1.125-1.125.622 0 1.125.504 1.125 1.125 0 .622-.503 1.125-1.125 1.125zm.773-3.375H8.227l-.352-4.5c0-.622.504-1.125 1.125-1.125.622 0 1.125.503 1.125 1.125l-.352 4.5z"/></svg><svg width="47" height="47" viewBox="-1 -1 47 47" id="play" y="718"><path opacity=".8" fill="#4D4D4D" d="M44.324 22.5c0 12.055-9.77 21.825-21.82 21.825S.678 34.555.678 22.5C.677 10.447 10.454.675 22.505.675c12.05 0 21.82 9.772 21.82 21.825z"/><path fill="#E2E2E2" d="M22.5 0C10.076 0 0 10.074 0 22.5 0 34.928 10.077 45 22.5 45c12.427 0 22.498-10.072 22.498-22.5 0-12.426-10.07-22.5-22.5-22.5zm0 42.188C11.62 42.188 2.81 33.373 2.81 22.5c0-10.877 8.81-19.686 19.687-19.686 10.872 0 19.686 8.81 19.686 19.686 0 10.872-8.814 19.688-19.687 19.688zm-5.626-9.944L33.75 22.5l-16.876-9.738v19.482z"/><path opacity=".6" fill="#fff" d="M16.874 32.244L33.75 22.5l-16.876-9.738z"/></svg><svg width="47" height="47" viewBox="-1 -1 47 47" id="play~hover" y="765"><path opacity=".8" fill="#4D4D4D" d="M44.324 22.5c0 12.055-9.77 21.825-21.82 21.825S.676 34.555.676 22.5C.676 10.447 10.453.675 22.504.675c12.05 0 21.82 9.772 21.82 21.825z"/><path fill="#33ADFF" d="M22.5 0C10.076 0 0 10.074 0 22.5 0 34.928 10.077 45 22.5 45c12.427 0 22.498-10.072 22.498-22.5 0-12.426-10.07-22.5-22.5-22.5zm0 42.188C11.62 42.188 2.81 33.373 2.81 22.5c0-10.877 8.81-19.686 19.687-19.686 10.872 0 19.686 8.81 19.686 19.686 0 10.872-8.814 19.688-19.687 19.688zm-5.626-9.944L33.75 22.5l-16.876-9.738v19.482z"/><path fill="#fff" d="M16.874 32.244L33.75 22.5l-16.876-9.738z"/></svg><svg width="10.117" height="19.391" viewBox="-1 -1 10.117 19.391" id="social-facebook" y="812"><path fill="#fff" d="M1.755 3.367v2.396H0V8.69h1.755v8.7H5.36v-8.7h2.417s.228-1.403.336-2.94h-2.74v-2c0-.3.394-.703.78-.703H8.12V0h-2.67C1.665 0 1.755 2.93 1.755 3.367z"/></svg><svg width="15" height="19.063" viewBox="-1 -1 15 19.063" id="social-twitter" y="832"><path fill="#fff" d="M10.57 12.797H6.36c-.585 0-1.083-.205-1.492-.617s-.613-.908-.613-1.498V9.184h6c.54 0 1.007-.194 1.395-.58.387-.39.58-.856.58-1.397 0-.543-.193-1.01-.58-1.397-.39-.387-.856-.58-1.4-.58H4.257V2.133c0-.586-.208-1.087-.623-1.505C3.22.21 2.72 0 2.14 0 1.543 0 1.035.207.62.616c-.412.41-.62.917-.62 1.52v8.547c0 1.758.62 3.26 1.865 4.508 1.244 1.25 2.744 1.872 4.498 1.872h4.21c.584 0 1.085-.21 1.503-.63.418-.415.626-.917.626-1.503 0-.585-.208-1.087-.626-1.505-.42-.42-.92-.628-1.506-.628z"/></svg><svg width="15.492" height="18.869" viewBox="-1 -1 15.492 18.869" id="social-vkonte" y="852"><path fill="#fff" d="M12.553 8.967c-.627-.676-1.46-1.124-2.504-1.342v-.09c.724-.303 1.292-.775 1.704-1.417s.617-1.375.617-2.198c0-.71-.147-1.337-.446-1.88-.3-.544-.75-.98-1.354-1.303-.56-.302-1.158-.5-1.795-.595C8.137.047 7.198 0 5.96 0H0v16.87h6.752c1.17 0 2.136-.106 2.894-.317.76-.212 1.457-.566 2.09-1.065.537-.415.965-.94 1.28-1.575.317-.634.476-1.37.476-2.21 0-1.147-.312-2.06-.94-2.736zM4.215 3.093h.294c.754 0 1.322.006 1.704.017.38.01.71.078.99.2.296.127.513.335.653.62.14.288.21.568.21.84 0 .37-.065.695-.194.974-.127.28-.36.5-.7.657-.31.144-.61.224-.902.24-.29.014-.798.022-1.523.022h-.532v-3.57zm4.65 9.625c-.178.32-.46.564-.844.73-.437.188-.868.29-1.29.306s-1.187.023-2.29.023h-.225V9.55h.78c.756 0 1.36.007 1.808.02.45.01.802.065 1.06.163.422.15.74.373.95.668s.317.704.317 1.225c0 .407-.087.77-.265 1.093z"/></svg><svg width="12.922" height="9.405999999999999" viewBox="-1 -1 12.922 9.405999999999999" id="social-youtube" y="871"><path fill="#fff" d="M9.677 0H1.2C-.037 0 0 1.063 0 2.357v2.715c0 1.293-.037 2.355 1.2 2.355h8.477c1.24 0 1.25-1.062 1.25-2.355V2.357c0-1.294-.01-2.357-1.25-2.357zM4.213 2.047L7.59 3.715 4.213 5.383V2.047z"/></svg><svg width="32" height="25" viewBox="-1 -1 32 25" id="tool-addReview" y="881"><path fill="#737373" d="M0 1.918v13.416c0 1.054.842 1.917 1.874 1.917h18.282l4.22 5.75v-5.75h3.748c1.034 0 1.876-.862 1.876-1.916V1.918C30 .865 29.158 0 28.124 0H1.874C.842 0 0 .865 0 1.918zm9.374 5.75h3.75V3.836h1.875V7.67h3.75v1.913H15v3.835h-1.877V9.583h-3.75V7.67z"/></svg><svg width="27" height="27" viewBox="-1 -1 27 27" id="tool-addthis" y="906"><path fill="#737373" d="M25 21.875C25 23.602 23.602 25 21.875 25H3.125C1.4 25 0 23.602 0 21.875V3.125C0 1.4 1.4 0 3.125 0h18.75C23.602 0 25 1.4 25 3.125v18.75z"/><path fill="#fff" d="M19.063 10.75H14.25V5.938c0-.24-.195-.438-.438-.438h-2.625c-.242 0-.438.198-.438.438v4.813H5.937c-.24 0-.438.197-.438.44v2.624c0 .24.196.438.438.438h4.813v4.813c0 .24.197.438.44.438h2.624c.242 0 .438-.197.438-.438V14.25h4.813c.24 0 .438-.197.438-.438v-2.625c-.003-.24-.2-.437-.44-.437z"/></svg><svg width="33" height="22" viewBox="-1 -1 33 22" id="tool-email" y="933"><path fill="#737373" d="M19.715 10.576L31 18.606V.114L19.715 10.576zM0 .113v18.494l11.285-8.033L0 .114zm15.5 14.37l-2.695-2.5L0 20h31l-12.807-8.018-2.694 2.5zM30.066 0H.93L15.5 11.307 30.066 0z"/></svg><svg width="13" height="25" viewBox="-1 -1 13 25" id="tool-facebook" y="955"><path fill="#737373" d="M7.352 23h-4.41V11.5H0V7.537l2.942-.002L2.938 5.2c0-3.233.896-5.2 4.796-5.2h3.244v3.965H8.95c-1.52 0-1.593.552-1.593 1.586l-.005 1.985H11l-.43 3.963-3.216.002L7.352 23z"/></svg><svg width="30" height="26" viewBox="-1 -1 30 26" id="tool-favorite" y="980"><path fill="#737373" d="M25.822 2.134c-2.906-2.845-7.617-2.845-10.518 0-.53.52-.967 1.103-1.304 1.72-.336-.616-.77-1.198-1.303-1.72C9.79-.71 5.084-.71 2.18 2.134c-2.907 2.846-2.907 7.46 0 10.304L14 24l11.822-11.563c2.905-2.843 2.905-7.458 0-10.303z"/></svg><svg width="31" height="26" viewBox="-1 -1 31 26" id="tool-googleplus" y="1006"><path fill="#737373" d="M15.834 0H8.247C4.844 0 1.643 2.524 1.643 5.45c0 2.986 2.318 5.397 5.78 5.397.24 0 .473-.003.7-.02-.223.42-.382.895-.382 1.388 0 .83.457 1.503 1.035 2.052-.437 0-.858.013-1.32.013C3.244 14.28 0 16.91 0 19.636 0 22.32 3.558 24 7.77 24c4.803 0 7.457-2.67 7.457-5.354 0-2.152-.648-3.44-2.654-4.83-.687-.476-1.998-1.633-1.998-2.313 0-.796.232-1.19 1.457-2.125 1.256-.96 2.146-2.31 2.146-3.882 0-1.87-.853-3.69-2.447-4.293h2.405L15.835 0zm-2.652 18.18c.06.25.094.507.094.768 0 2.17-1.427 3.865-5.52 3.865-2.914 0-5.018-1.807-5.018-3.976 0-2.126 2.61-3.896 5.522-3.865.68.008 1.316.115 1.888.298 1.582 1.076 2.715 1.685 3.034 2.91zm-4.66-8.09c-1.957-.057-3.815-2.14-4.152-4.656-.336-2.514.973-4.44 2.927-4.382 1.956.057 3.812 2.075 4.15 4.59.34 2.515-.973 4.507-2.926 4.45zm15.04-4.763V0H21.75v5.327h-5.438v1.775h5.438v5.327h1.81V7.1H29V5.327h-5.44z"/></svg><svg width="32" height="23" viewBox="-1 -1 32 23" id="tool-photoicon" y="1032"><g><path fill="#737373" d="M20.86 491.62c-.76-.777-1.298-1.286-2.6-1.534v-.1c.923-.394 1.643-.94 2.15-1.644.502-.7.76-1.512.76-2.43 0-.79-.185-1.494-.556-2.113-.37-.614-.93-1.108-1.687-1.473-.728-.35-1.466-.574-2.21-.676-.74-.1-2.402-.15-4.006-.15H5v19h8.674c1.44 0 2.633-.118 3.572-.357.938-.24 1.797-.64 2.58-1.197.676-.48 1.207-1.077 1.596-1.805.387-.722.578-1.54.578-2.46 0-1.267-.378-2.286-1.14-3.06zm-10.465-6.34h2.21c.77 0 1.405.09 1.903.265.577.252.865.774.865 1.563 0 .713-.217 1.21-.654 1.49-.438.28-1.006.42-1.706.42h-2.62v-3.738zm4.61 11.145c-.39.198-.934.298-1.632.298h-2.98v-4.52h3.032c.692.01 1.23.104 1.61.288.685.33 1.028.937 1.028 1.818 0 1.044-.352 1.75-1.06 2.117z"/><path fill-rule="evenodd" clip-rule="evenodd" fill="#737373" d="M.238 452.73l.1-.556c.184-1.057.596-2.025 1.13-2.948.616-1.068 1.373-2.032 2.214-2.933 1.037-1.11 2.174-2.1 3.455-2.922.947-.61 1.944-1.12 3.05-1.39.533-.13 1.074-.196 1.625-.1.874.152 1.446.757 1.554 1.64.084.665-.04 1.306-.228 1.94-.01.04-.022.08-.03.12-.043.202.076.327.284.302.248-.027.468-.142.7-.23.82-.32 1.663-.574 2.54-.686.708-.09 1.41-.093 2.095.153.838.3 1.306 1.02 1.254 1.908-.026.494-.156.96-.333 1.416-.024.06-.043.12-.055.184-.03.186.018.294.188.38.2.103.423.142.632.22.668.252 1.287.588 1.807 1.082.94.902 1.247 2 .962 3.264-.19.845-.608 1.578-1.143 2.25-.9 1.13-2.035 1.975-3.3 2.646-1.564.827-3.235 1.32-4.982 1.57-1.11.155-2.222.205-3.336.144-1.535-.084-3.04-.355-4.498-.86-1.19-.415-2.316-.962-3.31-1.745-1.01-.795-1.794-1.754-2.168-3.007-.087-.295-.146-.594-.18-.896-.003-.02-.007-.037-.028-.04v-.908zm9.948 5.98c.658-.01 1.355-.064 2.045-.187 1.426-.25 2.763-.725 3.973-1.527.832-.55 1.546-1.217 2.036-2.095.62-1.11.723-2.257.17-3.425-.39-.83-1.024-1.444-1.786-1.93-1.377-.884-2.915-1.256-4.532-1.344-.823-.043-1.644.004-2.458.133-1.38.217-2.68.646-3.877 1.367-.87.523-1.624 1.172-2.186 2.025-.426.65-.678 1.358-.683 2.14-.007.716.202 1.377.594 1.978.588.896 1.415 1.508 2.37 1.96 1.356.646 2.8.89 4.336.906zm-.293-1.085c.317.008.63-.023.94-.09 1.27-.268 2.31-.89 3.032-1.988.497-.758.71-1.594.533-2.493-.214-1.077-.864-1.836-1.842-2.306-1.217-.586-2.464-.572-3.705-.09-1.11.432-1.972 1.158-2.473 2.26-.62 1.356-.274 2.87.86 3.807.77.633 1.673.89 2.656.9zm-1.128-1.607c.688 0 1.335-.443 1.56-1.073.234-.66-.09-1.304-.758-1.51-.59-.18-1.304.044-1.715.544-.27.33-.41.702-.318 1.13.116.547.612.908 1.23.908zm2.406-3.26c-.33 0-.61.264-.605.576.002.248.2.433.468.433.317 0 .624-.282.622-.576 0-.248-.21-.435-.484-.433zm15.514-7.06c-.072-.145-.035-.303-.047-.45-.09-1.094-.41-2.11-.976-3.047-.693-1.147-1.64-2.034-2.84-2.64-.82-.413-1.69-.652-2.604-.73-.02 0-.033-.005-.04-.026h-.99c-.007.03-.03.027-.056.027-.318.015-.633.072-.944.142-.546.12-.876.663-.75 1.213.12.52.652.855 1.183.744.584-.122 1.173-.148 1.764-.058.98.146 1.848.54 2.59 1.206 1.046.94 1.597 2.122 1.673 3.52.03.557-.045 1.102-.21 1.634-.046.152-.094.307-.08.47.038.517.407.884.958.956.397.05.87-.268 1.006-.7.166-.522.272-1.056.317-1.603.012-.146-.025-.298.047-.436v-.22zm-3.783-.944c-.536-1.64-2.19-2.616-3.878-2.29-.51.097-.82.524-.735 1.013.08.46.533.782 1.043.69.832-.15 1.563.243 1.885.997.17.398.145.805.033 1.218-.124.456.145.904.598 1.036.44.127.9-.115 1.05-.555.115-.345.177-.697.166-1.054.007-.368-.05-.717-.16-1.056z"/><path fill="#737373" d="M17.05 406.552c0 1.38-1.192 2.497-2.664 2.497-.565 0-1.087-.167-1.517-.444-4.827 4.848-4.044 11.75-3.935 12.525 0-.013-.002-.02-.004-.032 0 0-.196.402-.668.402-.493 0-.567-.34-.567-.34s-1.293-8.3 4.34-13.37c.01-.007.02-.01.034-.014-.22-.363-.346-.782-.346-1.225 0-1.38 1.193-2.496 2.66-2.496 1.473 0 2.665 1.118 2.665 2.498zM14.5 399.5c-4.143 0-7.5 3.152-7.5 7.042 0 1.474.484 2.843 1.31 3.972 0 0 .483.117.866-.07.37-.188.457-.736.457-.736-.666-.898-1.055-1.986-1.055-3.165 0-3.074 2.652-5.565 5.923-5.565s5.925 2.49 5.925 5.565c0 3.07-2.653 5.562-5.924 5.562-.76 0-1.48-.135-2.148-.38 0 0-.432.075-.568.653-.13.533.286.824.286.824.763.248 1.58.38 2.432.38 4.142 0 7.5-3.15 7.5-7.04-.002-3.89-3.36-7.042-7.5-7.042zM17.334 359.5H9.747c-3.403 0-6.604 2.524-6.604 5.45 0 2.985 2.318 5.397 5.78 5.397.24 0 .474-.003.7-.02-.223.42-.383.895-.383 1.388 0 .83.457 1.503 1.035 2.052-.438 0-.86.013-1.32.013-4.212 0-7.455 2.63-7.455 5.355 0 2.684 3.558 4.364 7.77 4.364 4.803 0 7.457-2.67 7.457-5.355 0-2.152-.648-3.44-2.654-4.83-.686-.476-1.998-1.634-1.998-2.313 0-.796.232-1.188 1.457-2.125 1.256-.96 2.146-2.312 2.146-3.882 0-1.87-.854-3.69-2.447-4.293h2.405l1.7-1.202zm-2.652 18.18c.062.25.094.507.094.768 0 2.17-1.426 3.865-5.52 3.865-2.913 0-5.017-1.807-5.017-3.976 0-2.126 2.608-3.896 5.52-3.865.68.008 1.316.115 1.89.298 1.58 1.076 2.713 1.685 3.032 2.91zm-4.66-8.088c-1.956-.06-3.814-2.142-4.152-4.658-.336-2.514.975-4.438 2.928-4.38 1.956.056 3.813 2.073 4.152 4.588.336 2.515-.975 4.507-2.93 4.45zm15.04-4.766V359.5H23.25v5.326h-5.438v1.775h5.438v5.327h1.81V366.6h5.44v-1.774h-5.44zM27 340.875C27 342.6 25.6 344 23.875 344H5.125C3.4 344 2 342.6 2 340.875v-18.75C2 320.4 3.4 319 5.125 319h18.75C25.6 319 27 320.4 27 322.125v18.75z"/><path fill="#fff" d="M21.063 330.25H16.25v-4.813c0-.24-.195-.438-.438-.438h-2.625c-.242 0-.438.196-.438.437v4.813H7.937c-.24 0-.438.195-.438.438v2.625c0 .24.196.438.438.438h4.813v4.814c0 .24.196.438.44.438h2.624c.242 0 .438-.197.438-.438v-4.813h4.813c.24 0 .438-.196.438-.437v-2.625c-.003-.243-.2-.438-.44-.438z"/><path fill="#737373" d="M16.502 295.682c-1.41-.11-2-.803-3.104-1.47-.607 3.165-1.35 6.2-3.548 7.788-.676-4.787 1-8.38 1.773-12.196-1.324-2.22.16-6.685 2.96-5.583 3.438 1.353-2.983 8.25 1.33 9.11 4.5.898 6.337-7.762 3.546-10.578-4.03-4.07-11.738-.096-10.792 5.73.232 1.423 1.712 1.855.592 3.82-2.58-.568-3.35-2.593-3.252-5.286.16-4.42 3.988-7.51 7.836-7.938 4.857-.54 9.42 1.774 10.05 6.32.71 5.125-2.195 10.682-7.392 10.284zM26.822 240.634c-2.906-2.845-7.617-2.845-10.518 0-.53.52-.967 1.104-1.305 1.72-.337-.616-.772-1.198-1.304-1.72-2.906-2.845-7.613-2.845-10.516 0-2.908 2.846-2.908 7.46 0 10.304L15 262.5l11.82-11.562c2.907-2.844 2.907-7.46.002-10.304zM7.5 197.5h15v3.717h-15V197.5zm20.626 5.57H1.876c-1.03 0-1.876.838-1.876 1.86v9.283c0 1.02.845 1.858 1.876 1.858H7.5v7.43h15v-7.43h5.626c1.03 0 1.874-.836 1.874-1.857v-9.283c0-1.022-.843-1.86-1.874-1.86zm-7.5 18.575H9.375v-9.284h11.25v9.285zm7.922-15.786c0 .74-.61 1.345-1.36 1.345s-1.358-.604-1.358-1.346c0-.744.608-1.35 1.358-1.35s1.36.606 1.36 1.35zM28 161.484c-.955.422-1.984.707-3.063.834 1.1-.656 1.945-1.695 2.346-2.932-1.032.61-2.174 1.05-3.39 1.285-.97-1.026-2.358-1.67-3.893-1.67-2.944 0-5.334 2.372-5.334 5.3 0 .418.045.82.138 1.21-4.434-.224-8.365-2.335-10.994-5.54-.46.783-.724 1.69-.724 2.664 0 1.84.943 3.46 2.374 4.414-.875-.03-1.695-.266-2.418-.664v.068c0 2.57 1.838 4.71 4.28 5.2-.45.118-.92.183-1.408.183-.342 0-.677-.033-1.003-.094.682 2.106 2.65 3.638 4.985 3.683-1.825 1.42-4.127 2.268-6.625 2.268-.432 0-.857-.024-1.27-.075C4.357 179.12 7.162 180 10.173 180c9.815 0 15.18-8.08 15.18-15.084 0-.23-.005-.46-.017-.688 1.042-.746 1.95-1.68 2.663-2.744zM0 122.918v13.416c0 1.054.842 1.917 1.874 1.917h18.282l4.22 5.75v-5.75h3.748c1.034 0 1.876-.862 1.876-1.916v-13.416c0-1.053-.842-1.918-1.876-1.918H1.874C.842 121 0 121.865 0 122.918zm9.374 5.75h3.75v-3.833h1.875v3.834h3.75v1.913H15v3.835h-1.877v-3.835h-3.75v-1.914zM18.715 91.076L30 99.106V80.614L18.715 91.076zM-1 80.613v18.494l11.285-8.033L-1 80.614zm15.5 14.37l-2.695-2.5L-1 100.5h31l-12.807-8.018-2.694 2.5zM29.066 80.5H-.07L14.5 91.807 29.066 80.5zM16.852 62h-4.41V50.5H9.5v-3.963l2.942-.002-.004-2.334c0-3.233.896-5.2 4.796-5.2h3.244v3.965H18.45c-1.52 0-1.593.553-1.593 1.586l-.006 1.985h3.65l-.43 3.963-3.216.002-.002 11.5zM9.022 11.373c0 3.083 2.678 5.58 5.977 5.58 3.3 0 5.975-2.497 5.975-5.58 0-3.08-2.675-5.576-5.976-5.576-3.3 0-5.978 2.496-5.978 5.576zm19.1-7.873h-6.56c-.47-1.75-.938-3.5-2.814-3.5h-7.5C9.375 0 8.905 1.75 8.44 3.5H1.874C.845 3.5 0 4.287 0 5.25v14C0 20.215.844 21 1.875 21h26.248c1.03 0 1.877-.785 1.877-1.75v-14c0-.963-.846-1.75-1.877-1.75zM15 19.25c-4.66 0-8.438-3.526-8.438-7.877C6.562 7.025 10.34 3.5 15 3.5c4.66 0 8.437 3.525 8.437 7.873 0 4.35-3.777 7.877-8.438 7.877zM28.122 7.002h-3.75v-1.75h3.75v1.75z"/></g></svg><svg width="20" height="25" viewBox="-1 -1 20 25" id="tool-pinterest" y="1055"><path fill="#737373" d="M10.502 16.682c-1.41-.11-2-.803-3.104-1.47-.608 3.165-1.35 6.2-3.55 7.788-.675-4.787 1-8.38 1.775-12.196-1.324-2.22.16-6.685 2.96-5.584 3.438 1.353-2.983 8.25 1.33 9.11 4.5.898 6.337-7.762 3.546-10.58C9.43-.316 1.72 3.658 2.667 9.48c.232 1.424 1.712 1.857.592 3.822C.68 12.734-.09 10.71.01 8.015.167 3.595 3.996.505 7.843.077c4.858-.54 9.42 1.774 10.05 6.32.71 5.126-2.195 10.683-7.392 10.285z"/></svg><svg width="32" height="28" viewBox="-1 -1 32 28" id="tool-print" y="1080"><path fill="#737373" d="M7.5 0h15v3.717h-15V0zm20.626 5.57H1.876C.846 5.57 0 6.408 0 7.43v9.284c0 1.02.845 1.858 1.876 1.858H7.5V26h15v-7.428h5.626c1.03 0 1.874-.837 1.874-1.858V7.43c0-1.022-.843-1.86-1.874-1.86zm-7.5 18.575H9.375V14.86h11.25v9.285zM28.547 8.36c0 .74-.61 1.345-1.36 1.345S25.83 9.1 25.83 8.36c0-.744.608-1.35 1.358-1.35s1.36.606 1.36 1.35z"/></svg><svg width="28.578" height="23.523" viewBox="-1 -1 28.578 23.523" id="tool-seibo" y="1108"><path fill-rule="evenodd" clip-rule="evenodd" fill="#737373" d="M0 13.924l.1-.555c.184-1.058.596-2.026 1.13-2.95.617-1.068 1.373-2.032 2.214-2.933 1.036-1.11 2.174-2.1 3.454-2.922.948-.61 1.945-1.12 3.05-1.39.534-.13 1.075-.196 1.625-.1.874.152 1.447.757 1.554 1.64.084.665-.042 1.306-.228 1.94-.01.04-.023.08-.03.12-.044.203.075.327.283.303.248-.028.468-.142.7-.23.82-.322 1.664-.575 2.54-.686.708-.09 1.41-.093 2.095.153.838.3 1.307 1.023 1.254 1.91-.027.493-.156.96-.334 1.415-.023.062-.043.12-.055.185-.03.186.018.293.19.38.198.102.42.142.63.22.668.25 1.287.587 1.807 1.082.943.902 1.248 2 .963 3.264-.19.845-.607 1.58-1.143 2.25-.898 1.132-2.033 1.976-3.3 2.646-1.563.828-3.233 1.32-4.98 1.57-1.11.156-2.222.205-3.336.145-1.535-.083-3.04-.354-4.498-.86-1.192-.414-2.316-.96-3.31-1.744C1.365 17.98.58 17.022.207 15.77c-.087-.295-.146-.594-.18-.896-.003-.022-.006-.04-.028-.044v-.906zm9.947 5.98c.66-.01 1.356-.063 2.045-.186 1.425-.25 2.76-.725 3.972-1.527.832-.548 1.545-1.216 2.035-2.095.622-1.11.724-2.258.17-3.426-.39-.83-1.024-1.444-1.786-1.93-1.377-.884-2.915-1.256-4.532-1.344-.822-.043-1.642.003-2.456.133-1.38.216-2.68.645-3.877 1.366-.87.524-1.625 1.172-2.187 2.026-.426.65-.678 1.357-.684 2.14-.007.716.202 1.376.593 1.978.587.896 1.415 1.508 2.368 1.96 1.358.645 2.804.89 4.337.904zm-.292-1.084c.317.008.63-.023.94-.09 1.27-.268 2.31-.89 3.032-1.988.498-.758.71-1.594.533-2.494-.213-1.076-.864-1.836-1.842-2.305-1.216-.586-2.463-.572-3.705-.092-1.11.435-1.972 1.16-2.473 2.263-.62 1.355-.274 2.87.86 3.807.77.633 1.673.89 2.655.9zm-1.128-1.607c.69 0 1.335-.443 1.56-1.074.234-.66-.09-1.304-.758-1.51-.59-.18-1.305.044-1.716.544-.27.33-.41.703-.32 1.13.12.548.614.91 1.233.91zm2.406-3.262c-.33.003-.61.267-.607.58.002.247.2.43.468.43.317 0 .624-.28.623-.575 0-.248-.21-.436-.484-.434zm15.512-7.056c-.072-.146-.035-.304-.047-.45-.088-1.094-.41-2.11-.975-3.047-.695-1.15-1.643-2.035-2.842-2.64-.817-.415-1.688-.654-2.603-.73-.018 0-.033-.005-.04-.027h-.99c-.007.03-.03.027-.056.027-.317.014-.632.07-.942.14-.547.12-.877.664-.752 1.213.12.52.654.855 1.184.744.586-.12 1.174-.147 1.766-.057.98.146 1.848.542 2.588 1.207 1.047.94 1.598 2.122 1.674 3.52.03.556-.045 1.1-.21 1.633-.046.153-.093.307-.08.47.038.517.407.883.958.956.398.05.87-.268 1.006-.7.166-.522.27-1.056.316-1.604.012-.147-.025-.3.047-.437v-.22zm-3.78-.946c-.538-1.638-2.192-2.616-3.88-2.29-.512.098-.822.525-.736 1.014.08.46.532.782 1.042.69.832-.152 1.563.243 1.885.997.17.398.145.804.033 1.217-.123.456.145.904.598 1.036.44.127.9-.115 1.05-.554.116-.346.177-.7.167-1.055.007-.368-.05-.717-.16-1.057z"/></svg><svg width="28" height="23" viewBox="-1 -1 28 23" id="tool-twitter" y="1132"><path fill="#737373" d="M26 2.484c-.955.422-1.984.707-3.063.834 1.1-.656 1.945-1.695 2.346-2.932-1.032.61-2.174 1.05-3.39 1.285C20.924.646 19.536 0 18.002 0c-2.943 0-5.333 2.373-5.333 5.3 0 .42.045.82.138 1.21C8.37 6.287 4.44 4.176 1.81.97c-.46.784-.723 1.692-.723 2.665 0 1.84.943 3.46 2.374 4.414-.874-.03-1.695-.267-2.417-.665v.068c0 2.57 1.838 4.71 4.28 5.2-.45.118-.92.183-1.408.183-.342 0-.676-.033-1.003-.094.68 2.105 2.65 3.637 4.985 3.682-1.826 1.42-4.127 2.268-6.625 2.268-.432 0-.857-.025-1.27-.076C2.357 20.12 5.16 21 8.173 21c9.815 0 15.18-8.08 15.18-15.084 0-.23-.005-.46-.017-.688 1.042-.746 1.95-1.68 2.663-2.744z"/></svg><svg width="17" height="24" viewBox="-1 -1 17 24" id="tool-unknown" y="1155"><path fill="#737373" d="M10.05 7.052c0 1.38-1.192 2.497-2.664 2.497-.565 0-1.087-.167-1.517-.444-4.827 4.848-4.044 11.75-3.934 12.525 0-.013-.002-.02-.004-.032 0 0-.197.402-.67.402-.493 0-.566-.34-.566-.34s-1.294-8.3 4.34-13.37c.01-.006.02-.008.034-.013-.22-.363-.344-.782-.344-1.225 0-1.38 1.192-2.498 2.66-2.498 1.47 0 2.663 1.118 2.663 2.498zM7.5 0C3.358 0 0 3.153 0 7.042c0 1.473.484 2.843 1.31 3.972 0 0 .484.116.866-.07.37-.188.457-.737.457-.737-.666-.898-1.055-1.987-1.055-3.165 0-3.074 2.653-5.565 5.923-5.565 3.272 0 5.925 2.49 5.925 5.565 0 3.072-2.653 5.562-5.924 5.562-.76 0-1.48-.135-2.148-.38 0 0-.432.075-.57.653-.128.533.288.824.288.824.763.25 1.58.382 2.432.382 4.142 0 7.5-3.153 7.5-7.04C15 3.152 11.64 0 7.5 0z"/></svg><svg width="19" height="21" viewBox="-1 -1 19 21" id="tool-vkonte" y="1179"><path fill="#737373" d="M15.86 10.12c-.76-.777-1.298-1.286-2.6-1.534v-.1c.923-.394 1.643-.94 2.15-1.644.502-.7.76-1.512.76-2.43 0-.79-.185-1.494-.556-2.113-.37-.614-.93-1.108-1.687-1.473C13.2.477 12.46.253 11.717.15c-.74-.1-2.4-.15-4.005-.15H0v19h8.674c1.44 0 2.633-.117 3.572-.356.938-.24 1.797-.64 2.58-1.197.676-.48 1.207-1.077 1.596-1.805.387-.723.578-1.54.578-2.46 0-1.27-.378-2.288-1.14-3.063zM5.396 3.78h2.208c.772 0 1.407.09 1.905.265.577.252.865.774.865 1.563 0 .713-.217 1.21-.654 1.49-.438.28-1.006.42-1.706.42h-2.62V3.78zm4.61 11.145c-.39.198-.934.298-1.632.298H5.395v-4.52h3.032c.692.01 1.228.104 1.61.288.685.33 1.028.937 1.028 1.818 0 1.044-.354 1.75-1.06 2.117z"/></svg></svg>